<svg width="360" height="60" viewBox="0 0 360 60" fill="none" xmlns="http://www.w3.org/2000/svg">
<rect x="1" y="1" width="58" height="58" rx="29" fill="white"/>
<rect x="1" y="1" width="58" height="58" rx="29" stroke="url(#paint0_linear_3078_1701)" stroke-width="2"/>
<path d="M19.358 44.5V40.0682L29.7131 30.4801C30.5938 29.6278 31.3324 28.8608 31.929 28.179C32.535 27.4972 32.9943 26.8295 33.3068 26.1761C33.6193 25.5133 33.7756 24.7983 33.7756 24.0312C33.7756 23.179 33.5814 22.4451 33.1932 21.8295C32.8049 21.2045 32.2746 20.7263 31.6023 20.3949C30.9299 20.054 30.1676 19.8835 29.3153 19.8835C28.4252 19.8835 27.6487 20.0634 26.9858 20.4233C26.3229 20.7831 25.8116 21.2992 25.4517 21.9716C25.0919 22.6439 24.9119 23.4441 24.9119 24.3722H19.0739C19.0739 22.4687 19.5047 20.8163 20.3665 19.4148C21.2282 18.0133 22.4356 16.929 23.9886 16.1619C25.5417 15.3949 27.3314 15.0114 29.358 15.0114C31.4413 15.0114 33.2547 15.3807 34.7983 16.1193C36.3513 16.8485 37.5587 17.8617 38.4205 19.1591C39.2822 20.4564 39.7131 21.9432 39.7131 23.6193C39.7131 24.7178 39.4953 25.8021 39.0597 26.8722C38.6335 27.9422 37.8712 29.1307 36.7727 30.4375C35.6742 31.7348 34.1259 33.2926 32.1278 35.1108L27.8807 39.2727V39.4716H40.0966V44.5H19.358Z" fill="#543CDA"/>
<line x1="60" y1="29" x2="360" y2="29" stroke="url(#paint1_linear_3078_1701)" stroke-width="2"/>
<defs>
<linearGradient id="paint0_linear_3078_1701" x1="4.05443" y1="-3.84626e-07" x2="55.9456" y2="60" gradientUnits="userSpaceOnUse">
<stop stop-color="#543CDA"/>
<stop offset="1" stop-color="white"/>
</linearGradient>
<linearGradient id="paint1_linear_3078_1701" x1="60" y1="30.5" x2="360" y2="30.5" gradientUnits="userSpaceOnUse">
<stop stop-color="#543CDA" stop-opacity="0.2"/>
<stop offset="0.537782" stop-color="#543CDA" stop-opacity="0.6"/>
<stop offset="1" stop-color="#543CDA" stop-opacity="0.2"/>
</linearGradient>
</defs>
</svg>
