<svg width="60" height="60" viewBox="0 0 60 60" fill="none" xmlns="http://www.w3.org/2000/svg">
<rect width="60" height="60" rx="30" fill="#543CDA" fill-opacity="0.2"/>
<path fill-rule="evenodd" clip-rule="evenodd" d="M27.8744 20.8076C26.3123 19.2455 23.7797 19.2455 22.2176 20.8076L21.6821 21.3431C20.9437 22.0815 20.4387 23.1879 20.7267 24.3865C21.1683 26.224 22.4972 29.5725 26.4602 33.5355C30.4232 37.4985 33.7717 38.8274 35.6092 39.269C36.8078 39.5571 37.9143 39.052 38.6526 38.3137L39.1882 37.7781C40.7503 36.216 40.7503 33.6834 39.1882 32.1213L38.2593 31.1924C36.986 29.9191 35.0189 29.6536 33.4536 30.5437L33.3571 30.5985C32.7157 30.9633 31.9788 30.9335 31.4568 30.5557C31.0355 30.2508 30.6329 29.93 30.3493 29.6464C30.0657 29.3628 29.7449 28.9602 29.44 28.539C29.0622 28.0169 29.0324 27.28 29.3972 26.6386L29.4521 26.5421C30.3421 24.9768 30.0766 23.0097 28.8033 21.7364L27.8744 20.8076ZM23.6318 22.2218C24.4129 21.4407 25.6792 21.4407 26.4602 22.2218L27.3891 23.1506C28.0257 23.7873 28.1585 24.7708 27.7135 25.5535L27.6586 25.65C26.9537 26.8897 26.9289 28.4805 27.8198 29.7115C28.1471 30.1637 28.5403 30.6658 28.9351 31.0606C29.3299 31.4554 29.832 31.8487 30.2842 32.1759C31.5152 33.0668 33.1061 33.042 34.3457 32.3371L34.4422 32.2822C35.2249 31.8372 36.2084 31.97 36.8451 32.6066L37.7739 33.5355C38.555 34.3165 38.555 35.5829 37.7739 36.3639L37.2384 36.8994C36.8516 37.2863 36.4252 37.4082 36.0765 37.3244C34.6075 36.9713 31.5841 35.8309 27.8744 32.1213C24.1648 28.4116 23.0244 25.3882 22.6714 23.9192C22.5876 23.5705 22.7094 23.1442 23.0963 22.7573L23.6318 22.2218Z" fill="#543CDA"/>
</svg>
