<svg width="60" height="61" viewBox="0 0 60 61" fill="none" xmlns="http://www.w3.org/2000/svg">
<rect y="0.5" width="60" height="60" rx="30" fill="#543CDA" fill-opacity="0.2"/>
<path d="M30 27C30 26.4477 29.5523 26 29 26C28.4477 26 28 26.4477 28 27V32C28 32.5523 28.4477 33 29 33H32C32.5523 33 33 32.5523 33 32C33 31.4477 32.5523 31 32 31H30V27Z" fill="#543CDA"/>
<path fill-rule="evenodd" clip-rule="evenodd" d="M30 20.5C24.4772 20.5 20 24.9772 20 30.5C20 36.0228 24.4772 40.5 30 40.5C35.5228 40.5 40 36.0228 40 30.5C40 24.9772 35.5228 20.5 30 20.5ZM22 30.5C22 26.0817 25.5817 22.5 30 22.5C34.4183 22.5 38 26.0817 38 30.5C38 34.9183 34.4183 38.5 30 38.5C25.5817 38.5 22 34.9183 22 30.5Z" fill="#543CDA"/>
</svg>
