<svg width="357" height="302" viewBox="0 0 357 302" fill="none" xmlns="http://www.w3.org/2000/svg">
<path d="M-0.000135647 52.3653L10.6722 56.7739L9.15395 45.3271L-0.000135647 52.3653ZM142.687 301.77H143.687C143.687 253.332 146.306 212.107 147.494 177.765C148.68 143.478 148.444 115.988 142.659 95.2268C139.76 84.825 135.459 76.0705 129.215 68.9821C122.967 61.8892 114.815 56.5116 104.289 52.8059C83.2835 45.4111 52.7674 44.6566 8.82098 50.1866L8.94584 51.1788L9.07068 52.1709C52.9628 46.6478 83.0836 47.461 103.625 54.6924C113.871 58.2997 121.72 63.4999 127.714 70.3041C133.711 77.1128 137.893 85.5749 140.732 95.7637C146.422 116.184 146.682 143.372 145.495 177.696C144.31 211.967 141.687 253.288 141.687 301.77H142.687Z" fill="#543CDA"/>
<path d="M356.932 52.3653L346.259 56.7739L347.778 45.3271L356.932 52.3653ZM214.245 301.77H213.245C213.245 253.332 210.625 212.107 209.438 177.765C208.252 143.478 208.488 115.988 214.273 95.2268C217.172 84.825 221.473 76.0705 227.717 68.9821C233.965 61.8892 242.117 56.5116 252.643 52.8059C273.648 45.4111 304.164 44.6566 348.111 50.1866L347.986 51.1788L347.861 52.1709C303.969 46.6478 273.848 47.461 253.307 54.6924C243.06 58.2997 235.211 63.4999 229.218 70.3041C223.22 77.1128 219.039 85.5749 216.2 95.7637C210.509 116.184 210.249 143.372 211.436 177.696C212.622 211.967 215.245 253.288 215.245 301.77H214.245Z" fill="#543CDA"/>
</svg>
