<svg width="357" height="302" viewBox="0 0 357 302" fill="none" xmlns="http://www.w3.org/2000/svg">
<path d="M-0.000135647 249.404L10.6722 244.996L9.15395 256.442L-0.000135647 249.404ZM142.687 0H143.687C143.687 48.4371 146.306 89.6629 147.494 124.004C148.68 158.292 148.444 185.781 142.659 206.543C139.76 216.945 135.459 225.699 129.215 232.787C122.967 239.88 114.815 245.258 104.289 248.964C83.2835 256.358 52.7674 257.113 8.82098 251.583L8.94584 250.591L9.07068 249.599C52.9628 255.122 83.0836 254.309 103.625 247.077C113.871 243.47 121.72 238.27 127.714 231.465C133.711 224.657 137.893 216.195 140.732 206.006C146.422 185.586 146.682 158.398 145.495 124.073C144.31 89.8025 141.687 48.4818 141.687 0H142.687Z" fill="#543CDA"/>
<path d="M356.932 249.404L346.259 244.996L347.778 256.442L356.932 249.404ZM214.245 0H213.245C213.245 48.4371 210.625 89.6629 209.438 124.004C208.252 158.292 208.488 185.781 214.273 206.543C217.172 216.945 221.473 225.699 227.717 232.787C233.965 239.88 242.117 245.258 252.643 248.964C273.648 256.358 304.164 257.113 348.111 251.583L347.986 250.591L347.861 249.599C303.969 255.122 273.848 254.309 253.307 247.077C243.06 243.47 235.211 238.27 229.218 231.465C223.22 224.657 219.039 216.195 216.2 206.006C210.509 185.586 210.249 158.398 211.436 124.073C212.622 89.8025 215.245 48.4818 215.245 0H214.245Z" fill="#543CDA"/>
</svg>
