<svg width="24" height="24" viewBox="0 0 24 24" fill="none" xmlns="http://www.w3.org/2000/svg">
<path fill-rule="evenodd" clip-rule="evenodd" d="M15.4909 6.93503C15.6407 7.06581 15.7325 7.25072 15.746 7.44913C15.7595 7.64753 15.6936 7.84317 15.5629 7.99303L7.70593 16.993C7.63553 17.0737 7.54869 17.1383 7.45124 17.1826C7.35378 17.2269 7.24798 17.2498 7.14093 17.2498C7.03388 17.2498 6.92808 17.2269 6.83063 17.1826C6.73317 17.1383 6.64633 17.0737 6.57593 16.993L3.43293 13.393C3.30685 13.2426 3.2448 13.0487 3.26009 12.8529C3.27538 12.6572 3.3668 12.4753 3.51472 12.3462C3.66263 12.2172 3.85525 12.1513 4.05123 12.1626C4.24721 12.174 4.43093 12.2617 4.56293 12.407L7.14093 15.36L14.4329 7.00703C14.5637 6.85722 14.7486 6.76548 14.947 6.75198C15.1454 6.73847 15.3411 6.80432 15.4909 6.93503ZM20.5159 7.02003C20.8159 7.30503 20.8269 7.78003 20.5409 8.08003L11.9699 17.08C11.8951 17.1587 11.804 17.2201 11.7031 17.2601C11.6022 17.3001 11.4938 17.3177 11.3854 17.3117C11.277 17.3057 11.1712 17.2763 11.0753 17.2254C10.9794 17.1745 10.8957 17.1034 10.8299 17.017L10.4009 16.454C10.2886 16.3075 10.2342 16.1247 10.2482 15.9406C10.2622 15.7565 10.3436 15.5841 10.4769 15.4563C10.6101 15.3285 10.7858 15.2543 10.9704 15.248C11.1549 15.2417 11.3353 15.3036 11.4769 15.422L19.4549 7.04503C19.5921 6.90108 19.7808 6.81748 19.9795 6.8126C20.1783 6.80772 20.3709 6.88198 20.5149 7.01903" fill="black"/>
</svg>
