<svg width="60" height="60" viewBox="0 0 60 60" fill="none" xmlns="http://www.w3.org/2000/svg">
<rect width="60" height="60" rx="30" fill="#543CDA" fill-opacity="0.2"/>
<path fill-rule="evenodd" clip-rule="evenodd" d="M37.0003 39C39.2094 39 41.0003 37.2091 41.0003 35V26.0227C41.0006 26.0074 41.0006 25.9921 41.0003 25.9767V25C41.0003 22.7909 39.2094 21 37.0003 21H23.0003C20.7911 21 19.0003 22.7909 19.0003 25V25.9767C18.9999 25.9921 18.9999 26.0074 19.0003 26.0227V35C19.0003 37.2091 20.7911 39 23.0003 39H37.0003ZM21.0003 35C21.0003 36.1046 21.8957 37 23.0003 37H37.0003C38.1048 37 39.0003 36.1046 39.0003 35V27.477L31.4858 30.4828C30.5322 30.8643 29.4683 30.8643 28.5147 30.4828L21.0003 27.477V35ZM30.743 28.6259L39.0003 25.323V25C39.0003 23.8954 38.1048 23 37.0003 23H23.0003C21.8957 23 21.0003 23.8954 21.0003 25V25.323L29.2575 28.6259C29.7343 28.8166 30.2662 28.8166 30.743 28.6259Z" fill="#543CDA"/>
</svg>
