<svg width="32" height="32" viewBox="0 0 32 32" fill="none" xmlns="http://www.w3.org/2000/svg">
<path d="M10.6654 4C8.19001 4 5.81604 4.98333 4.0657 6.73367C2.31536 8.48401 1.33203 10.858 1.33203 13.3333C1.33203 15.8087 2.31536 18.1827 4.0657 19.933C5.81604 21.6833 8.19001 22.6667 10.6654 22.6667H12.092C11.9644 21.7824 11.9644 20.8843 12.092 20H10.6654C8.89725 20 7.20156 19.2976 5.95132 18.0474C4.70108 16.7971 3.9987 15.1014 3.9987 13.3333C3.9987 11.5652 4.70108 9.86953 5.95132 8.61929C7.20156 7.36905 8.89725 6.66667 10.6654 6.66667H21.332C22.3207 6.66647 23.2971 6.88617 24.1904 7.30987C25.0837 7.73358 25.8716 8.35066 26.4969 9.11644C27.1223 9.88221 27.5695 10.7775 27.8062 11.7374C28.0429 12.6974 28.0631 13.698 27.8654 14.6667C28.6514 15.4365 29.295 16.3393 29.7667 17.3333C30.4416 15.9106 30.7455 14.3402 30.6502 12.7684C30.5549 11.1966 30.0634 9.67442 29.2215 8.34364C28.3797 7.01286 27.2148 5.91672 25.8354 5.15725C24.4559 4.39778 22.9067 3.99968 21.332 4H10.6654ZM21.332 17.3333C20.2712 17.3333 19.2537 17.7548 18.5036 18.5049C17.7535 19.2551 17.332 20.2725 17.332 21.3333C17.332 22.3942 17.7535 23.4116 18.5036 24.1618C19.2537 24.9119 20.2712 25.3333 21.332 25.3333C22.3929 25.3333 23.4103 24.9119 24.1605 24.1618C24.9106 23.4116 25.332 22.3942 25.332 21.3333C25.332 20.2725 24.9106 19.2551 24.1605 18.5049C23.4103 17.7548 22.3929 17.3333 21.332 17.3333ZM14.6654 21.3333C14.6656 20.2939 14.9089 19.2689 15.3758 18.3402C15.8428 17.4115 16.5204 16.6049 17.3546 15.9848C18.1888 15.3646 19.1564 14.9481 20.1802 14.7685C21.2041 14.5889 22.2557 14.6512 23.2511 14.9505C24.2466 15.2497 25.1583 15.7775 25.9134 16.4918C26.6685 17.2062 27.2462 18.0872 27.6002 19.0645C27.9542 20.0418 28.0747 21.0883 27.9522 22.1205C27.8298 23.1528 27.4676 24.142 26.8947 25.0093L30.2747 28.3907L28.3894 30.276L25.008 26.896C24.0032 27.5602 22.8372 27.9397 21.6339 27.9942C20.4306 28.0488 19.235 27.7763 18.1742 27.2057C17.1134 26.6352 16.227 25.7879 15.6091 24.7539C14.9913 23.7199 14.6652 22.5378 14.6654 21.3333Z" fill="#0059F1"/>
</svg>
