<svg width="51" height="50" viewBox="0 0 51 50" fill="none" xmlns="http://www.w3.org/2000/svg">
<rect x="0.5" width="50" height="50" rx="25" fill="white"/>
<path d="M31.4908 14.5961C30.482 14.4891 29.4682 14.437 28.4538 14.4401C25.0908 14.4401 23.0008 16.5821 23.0008 20.0301V22.3711H20.1758C20.0432 22.3711 19.916 22.4237 19.8222 22.5175C19.7285 22.6113 19.6758 22.7385 19.6758 22.8711V26.7211C19.6758 26.8537 19.7285 26.9809 19.8222 27.0746C19.916 27.1684 20.0432 27.2211 20.1758 27.2211H23.0008V34.9411C23.0008 35.0737 23.0535 35.2009 23.1472 35.2946C23.241 35.3884 23.3682 35.4411 23.5008 35.4411H27.4788C27.6114 35.4411 27.7386 35.3884 27.8323 35.2946C27.9261 35.2009 27.9788 35.0737 27.9788 34.9411V27.2211H30.7948C30.9162 27.2211 31.0334 27.177 31.1247 27.097C31.216 27.0169 31.275 26.9064 31.2908 26.7861L31.7878 22.9361C31.797 22.8655 31.7911 22.7938 31.7704 22.7257C31.7497 22.6576 31.7147 22.5947 31.6678 22.5412C31.6208 22.4877 31.563 22.4449 31.4982 22.4155C31.4333 22.3862 31.363 22.371 31.2918 22.3711H27.9788V20.4121C27.9788 19.4421 28.1738 19.0371 29.3868 19.0371H31.4258C31.5584 19.0371 31.6856 18.9844 31.7793 18.8906C31.8731 18.7969 31.9258 18.6697 31.9258 18.5371V15.0921C31.9258 14.9707 31.8817 14.8534 31.8017 14.7621C31.7217 14.6709 31.6111 14.6118 31.4908 14.5961ZM30.9258 18.0361L29.3858 18.0371C27.2288 18.0371 26.9788 19.3931 26.9788 20.4121V22.8721C26.9788 23.0045 27.0313 23.1315 27.1249 23.2253C27.2184 23.319 27.3453 23.3718 27.4778 23.3721H30.7238L30.3548 26.2221H27.4788C27.3462 26.2221 27.219 26.2747 27.1252 26.3685C27.0315 26.4623 26.9788 26.5895 26.9788 26.7221V34.4401H24.0008V26.7221C24.0008 26.5895 23.9481 26.4623 23.8543 26.3685C23.7606 26.2747 23.6334 26.2221 23.5008 26.2221H20.6768V23.3721H23.5008C23.6334 23.3721 23.7606 23.3194 23.8543 23.2256C23.9481 23.1319 24.0008 23.0047 24.0008 22.8721V20.0301C24.0008 17.1561 25.6658 15.4401 28.4538 15.4401C29.4628 15.4401 30.3738 15.4951 30.9258 15.5431V18.0361Z" fill="black"/>
</svg>
