<svg width="27" height="26" viewBox="0 0 27 26" fill="none" xmlns="http://www.w3.org/2000/svg">
<path fill-rule="evenodd" clip-rule="evenodd" d="M18.61 14.2738C17.39 12.4937 15.1038 9.5075 13.5 9.5075C11.8962 9.5075 9.61 12.4937 8.39 14.2738C8.0975 14.7013 8.20625 15.285 8.63375 15.5763C9.05875 15.8687 9.64625 15.7587 9.93625 15.3337C11.2963 13.35 12.98 11.5025 13.5375 11.3813C14.0213 11.5025 15.705 13.35 17.065 15.3337C17.355 15.7587 17.9388 15.8687 18.3675 15.5763C18.7938 15.285 18.9025 14.7013 18.61 14.2738ZM13.5 25.1875C4.5025 25.1875 1.3125 21.9987 1.3125 13C1.3125 4.0025 4.5025 0.8125 13.5 0.8125C22.4975 0.8125 25.6875 4.0025 25.6875 13C25.6875 21.9987 22.4975 25.1875 13.5 25.1875Z" fill="white" stroke="#543CDA" stroke-width="1.5"/>
</svg>
