<svg width="360" height="60" viewBox="0 0 360 60" fill="none" xmlns="http://www.w3.org/2000/svg">
<rect x="1" y="1" width="58" height="58" rx="29" fill="#543CDA" fill-opacity="0.8"/>
<rect x="1" y="1" width="58" height="58" rx="29" stroke="url(#paint0_linear_3078_1652)" stroke-width="2"/>
<path d="M29.6108 44.8977C27.4896 44.8977 25.6004 44.5331 23.9432 43.804C22.2955 43.0653 20.9934 42.0521 20.0369 40.7642C19.09 39.4669 18.6023 37.9706 18.5739 36.2756H24.767C24.8049 36.9858 25.0369 37.6108 25.4631 38.1506C25.8987 38.6809 26.4763 39.0928 27.196 39.3864C27.9157 39.6799 28.7254 39.8267 29.625 39.8267C30.5625 39.8267 31.3911 39.661 32.1108 39.3295C32.8305 38.9981 33.3939 38.5388 33.8011 37.9517C34.2083 37.3646 34.4119 36.6875 34.4119 35.9205C34.4119 35.1439 34.1941 34.4574 33.7585 33.8608C33.3324 33.2547 32.7169 32.7812 31.9119 32.4403C31.1165 32.0994 30.1695 31.929 29.071 31.929H26.358V27.4119H29.071C29.9991 27.4119 30.8182 27.2509 31.5284 26.929C32.2481 26.607 32.8068 26.1619 33.2045 25.5938C33.6023 25.0161 33.8011 24.3438 33.8011 23.5767C33.8011 22.8475 33.6259 22.2083 33.2756 21.6591C32.9347 21.1004 32.4517 20.6648 31.8267 20.3523C31.2112 20.0398 30.4915 19.8835 29.6676 19.8835C28.8343 19.8835 28.072 20.035 27.3807 20.3381C26.6894 20.6316 26.1354 21.053 25.7188 21.6023C25.3021 22.1515 25.0795 22.7955 25.0511 23.5341H19.1562C19.1847 21.858 19.6629 20.3807 20.5909 19.1023C21.5189 17.8239 22.7689 16.8248 24.3409 16.1051C25.9223 15.3759 27.7074 15.0114 29.696 15.0114C31.7036 15.0114 33.4602 15.3759 34.9659 16.1051C36.4716 16.8343 37.6411 17.8191 38.4744 19.0597C39.3172 20.2907 39.7339 21.6733 39.7244 23.2074C39.7339 24.8362 39.2273 26.1951 38.2045 27.2841C37.1913 28.3731 35.8703 29.0644 34.2415 29.358V29.5852C36.3816 29.8598 38.0104 30.6032 39.1278 31.8153C40.2547 33.018 40.8134 34.5237 40.804 36.3324C40.8134 37.9896 40.3352 39.4621 39.3693 40.75C38.4129 42.0379 37.0919 43.0511 35.4062 43.7898C33.7206 44.5284 31.7888 44.8977 29.6108 44.8977Z" fill="white"/>
<line x1="60" y1="29" x2="360" y2="29" stroke="url(#paint1_linear_3078_1652)" stroke-width="2"/>
<defs>
<linearGradient id="paint0_linear_3078_1652" x1="4.05443" y1="-3.84626e-07" x2="55.9456" y2="60" gradientUnits="userSpaceOnUse">
<stop offset="0.063232" stop-color="white"/>
<stop offset="1" stop-color="#543CDA" stop-opacity="0.6"/>
</linearGradient>
<linearGradient id="paint1_linear_3078_1652" x1="60" y1="30.5" x2="360" y2="30.5" gradientUnits="userSpaceOnUse">
<stop stop-color="white" stop-opacity="0.2"/>
<stop offset="0.537782" stop-color="white" stop-opacity="0.6"/>
<stop offset="1" stop-color="white" stop-opacity="0.2"/>
</linearGradient>
</defs>
</svg>
