<svg width="360" height="60" viewBox="0 0 360 60" fill="none" xmlns="http://www.w3.org/2000/svg">
<rect x="1" y="1" width="58" height="58" rx="29" fill="#543CDA" fill-opacity="0.8"/>
<rect x="1" y="1" width="58" height="58" rx="29" stroke="url(#paint0_linear_3078_1678)" stroke-width="2"/>
<path d="M30.0227 44.8977C28.5265 44.8883 27.0824 44.6373 25.6903 44.1449C24.3078 43.6525 23.0672 42.8523 21.9688 41.7443C20.8703 40.6364 19.9991 39.1686 19.3551 37.3409C18.7206 35.5133 18.4034 33.2689 18.4034 30.608C18.4129 28.1648 18.6922 25.982 19.2415 24.0597C19.8002 22.1278 20.5956 20.4896 21.6278 19.1449C22.6695 17.8002 23.9148 16.7775 25.3636 16.0767C26.8125 15.3665 28.4366 15.0114 30.2358 15.0114C32.1771 15.0114 33.8911 15.3902 35.3778 16.1477C36.8646 16.8958 38.0578 17.9138 38.9574 19.2017C39.8665 20.4896 40.4157 21.9337 40.6051 23.5341H34.5398C34.303 22.5208 33.8059 21.7254 33.0483 21.1477C32.2907 20.5701 31.3532 20.2812 30.2358 20.2812C28.3419 20.2812 26.9025 21.1051 25.9176 22.7528C24.9422 24.4006 24.4451 26.6402 24.4261 29.4716H24.625C25.0606 28.6098 25.6477 27.8759 26.3864 27.2699C27.1345 26.6544 27.982 26.1856 28.929 25.8636C29.8854 25.5322 30.8939 25.3665 31.9545 25.3665C33.678 25.3665 35.2121 25.7737 36.5568 26.5881C37.9015 27.393 38.9621 28.5009 39.7386 29.9119C40.5152 31.3229 40.9034 32.9375 40.9034 34.7557C40.9034 36.7254 40.4441 38.4773 39.5256 40.0114C38.6165 41.5455 37.3428 42.7481 35.7045 43.6193C34.0758 44.4811 32.1818 44.9072 30.0227 44.8977ZM29.9943 40.0682C30.9413 40.0682 31.7888 39.8409 32.5369 39.3864C33.285 38.9318 33.8722 38.3163 34.2983 37.5398C34.7244 36.7633 34.9375 35.892 34.9375 34.9261C34.9375 33.9602 34.7244 33.0937 34.2983 32.3267C33.8816 31.5597 33.304 30.9489 32.5653 30.4943C31.8267 30.0398 30.9839 29.8125 30.0369 29.8125C29.3267 29.8125 28.6686 29.9451 28.0625 30.2102C27.4659 30.4754 26.9403 30.8447 26.4858 31.3182C26.0407 31.7917 25.6903 32.3409 25.4347 32.9659C25.179 33.5814 25.0511 34.2396 25.0511 34.9403C25.0511 35.8778 25.2642 36.7348 25.6903 37.5114C26.1259 38.2879 26.7131 38.9081 27.4517 39.3722C28.1998 39.8362 29.0473 40.0682 29.9943 40.0682Z" fill="white"/>
<line x1="60" y1="29" x2="360" y2="29" stroke="url(#paint1_linear_3078_1678)" stroke-width="2"/>
<defs>
<linearGradient id="paint0_linear_3078_1678" x1="4.05443" y1="-3.84626e-07" x2="55.9456" y2="60" gradientUnits="userSpaceOnUse">
<stop offset="0.063232" stop-color="white"/>
<stop offset="1" stop-color="#543CDA" stop-opacity="0.6"/>
</linearGradient>
<linearGradient id="paint1_linear_3078_1678" x1="60" y1="30.5" x2="360" y2="30.5" gradientUnits="userSpaceOnUse">
<stop stop-color="white" stop-opacity="0.2"/>
<stop offset="0.537782" stop-color="white" stop-opacity="0.6"/>
<stop offset="1" stop-color="white" stop-opacity="0.2"/>
</linearGradient>
</defs>
</svg>
