<svg width="360" height="60" viewBox="0 0 360 60" fill="none" xmlns="http://www.w3.org/2000/svg">
<rect x="1" y="1" width="58" height="58" rx="29" fill="#543CDA" fill-opacity="0.8"/>
<rect x="1" y="1" width="58" height="58" rx="29" stroke="url(#paint0_linear_3078_1670)" stroke-width="2"/>
<path d="M29.983 44.8977C27.9754 44.8977 26.1856 44.5284 24.6136 43.7898C23.0511 43.0511 21.8106 42.0331 20.892 40.7358C19.9735 39.4384 19.4953 37.9517 19.4574 36.2756H25.4233C25.4896 37.4025 25.9631 38.3163 26.8438 39.017C27.7244 39.7178 28.7708 40.0682 29.983 40.0682C30.9489 40.0682 31.8011 39.8551 32.5398 39.429C33.2879 38.9934 33.8703 38.392 34.2869 37.625C34.7131 36.8485 34.9261 35.9583 34.9261 34.9545C34.9261 33.9318 34.7083 33.0322 34.2727 32.2557C33.8466 31.4792 33.2547 30.8731 32.4972 30.4375C31.7396 30.0019 30.8731 29.7794 29.8977 29.7699C29.0455 29.7699 28.2169 29.9451 27.4119 30.2955C26.6165 30.6458 25.9962 31.1241 25.5511 31.7301L20.0824 30.75L21.4602 15.4091H39.2443V20.4375H26.5312L25.7784 27.7244H25.9489C26.4602 27.0047 27.232 26.4081 28.2642 25.9347C29.2964 25.4612 30.4517 25.2244 31.7301 25.2244C33.482 25.2244 35.0445 25.6364 36.4176 26.4602C37.7907 27.2841 38.875 28.4157 39.6705 29.8551C40.4659 31.285 40.8589 32.9328 40.8494 34.7983C40.8589 36.7585 40.4044 38.5009 39.4858 40.0256C38.5767 41.5407 37.303 42.7339 35.6648 43.6051C34.036 44.4669 32.142 44.8977 29.983 44.8977Z" fill="white"/>
<line x1="60" y1="29" x2="360" y2="29" stroke="url(#paint1_linear_3078_1670)" stroke-width="2"/>
<defs>
<linearGradient id="paint0_linear_3078_1670" x1="4.05443" y1="-3.84626e-07" x2="55.9456" y2="60" gradientUnits="userSpaceOnUse">
<stop offset="0.063232" stop-color="white"/>
<stop offset="1" stop-color="#543CDA" stop-opacity="0.6"/>
</linearGradient>
<linearGradient id="paint1_linear_3078_1670" x1="60" y1="30.5" x2="360" y2="30.5" gradientUnits="userSpaceOnUse">
<stop stop-color="white" stop-opacity="0.2"/>
<stop offset="0.537782" stop-color="white" stop-opacity="0.6"/>
<stop offset="1" stop-color="white" stop-opacity="0.2"/>
</linearGradient>
</defs>
</svg>
