<svg width="64" height="64" viewBox="0 0 64 64" fill="none" xmlns="http://www.w3.org/2000/svg">
<rect width="64" height="64" rx="32" fill="#543CDA"/>
<g clip-path="url(#clip0_2590_1371)">
<path fill-rule="evenodd" clip-rule="evenodd" d="M25.25 18.5C21.5221 18.5 18.5 21.5221 18.5 25.25V38.75C18.5 42.4779 21.5221 45.5 25.25 45.5H38.75C42.4779 45.5 45.5 42.4779 45.5 38.75V25.25C45.5 21.5221 42.4779 18.5 38.75 18.5H25.25ZM38.7554 28.5643C39.2543 27.9405 39.1533 27.0303 38.5294 26.5312C37.9057 26.0322 36.9954 26.1333 36.4964 26.7571L29.6579 35.3053L26.9223 33.2536C26.2832 32.7743 25.3766 32.9038 24.8973 33.5429C24.418 34.1819 24.5475 35.0886 25.1866 35.5679L29.0437 38.4607C29.6687 38.9296 30.553 38.8171 31.0411 38.2071L38.7554 28.5643Z" fill="white"/>
</g>
<defs>
<clipPath id="clip0_2590_1371">
<rect width="27" height="27" fill="white" transform="translate(18.5 18.5)"/>
</clipPath>
</defs>
</svg>
