<svg width="81" height="35" viewBox="0 0 81 35" fill="none" xmlns="http://www.w3.org/2000/svg">
<path d="M69.7465 30.7055C70.1214 30.3163 70.332 29.7886 70.332 29.2384C70.332 28.6882 70.1214 28.1605 69.7465 27.7714L59.847 17.5002L69.7465 7.2289C70.1108 6.83755 70.3124 6.31341 70.3078 5.76935C70.3033 5.22529 70.0929 4.70485 69.7221 4.32013C69.3513 3.93541 68.8497 3.71719 68.3254 3.71246C67.801 3.70773 67.2958 3.91688 66.9186 4.29486L55.6052 16.0331C55.2303 16.4223 55.0197 16.9499 55.0197 17.5002C55.0197 18.0504 55.2303 18.5781 55.6052 18.9672L66.9186 30.7055C67.2937 31.0945 67.8023 31.313 68.3326 31.313C68.8629 31.313 69.3715 31.0945 69.7465 30.7055Z" fill="#543CDA"/>
<path d="M53.7426 30.7055C54.1175 30.3163 54.3281 29.7886 54.3281 29.2384C54.3281 28.6882 54.1175 28.1605 53.7426 27.7714L43.8431 17.5002L53.7426 7.2289C54.1069 6.83755 54.3085 6.31341 54.3039 5.76935C54.2993 5.22529 54.089 4.70485 53.7182 4.32013C53.3474 3.93541 52.8458 3.71719 52.3215 3.71246C51.7971 3.70773 51.2919 3.91688 50.9147 4.29486L39.6013 16.0331C39.2264 16.4223 39.0158 16.9499 39.0158 17.5002C39.0158 18.0504 39.2264 18.5781 39.6013 18.9672L50.9147 30.7055C51.2898 31.0945 51.7984 31.313 52.3287 31.313C52.859 31.313 53.3675 31.0945 53.7426 30.7055Z" fill="#543CDA"/>
<path d="M37.7543 30.7055C38.1292 30.3163 38.3398 29.7886 38.3398 29.2384C38.3398 28.6882 38.1292 28.1605 37.7543 27.7714L27.8548 17.5002L37.7543 7.2289C38.1186 6.83755 38.3202 6.31341 38.3156 5.76935C38.3111 5.22529 38.1007 4.70485 37.7299 4.32013C37.3591 3.93541 36.8575 3.71719 36.3332 3.71246C35.8088 3.70773 35.3036 3.91688 34.9264 4.29486L23.613 16.0331C23.2381 16.4223 23.0275 16.9499 23.0275 17.5002C23.0275 18.0504 23.2381 18.5781 23.613 18.9672L34.9264 30.7055C35.3015 31.0945 35.8101 31.313 36.3404 31.313C36.8707 31.313 37.3793 31.0945 37.7543 30.7055Z" fill="#543CDA"/>
<path d="M21.7465 30.7055C22.1214 30.3163 22.332 29.7886 22.332 29.2384C22.332 28.6882 22.1214 28.1605 21.7465 27.7714L11.847 17.5002L21.7465 7.2289C22.1108 6.83755 22.3124 6.31341 22.3078 5.76935C22.3033 5.22529 22.0929 4.70485 21.7221 4.32013C21.3513 3.93541 20.8497 3.71719 20.3254 3.71246C19.801 3.70773 19.2958 3.91688 18.9186 4.29486L7.60522 16.0331C7.2303 16.4223 7.01968 16.9499 7.01968 17.5002C7.01968 18.0504 7.2303 18.5781 7.60522 18.9672L18.9186 30.7055C19.2937 31.0945 19.8023 31.313 20.3326 31.313C20.8629 31.313 21.3715 31.0945 21.7465 30.7055Z" fill="#543CDA"/>
</svg>
