<svg width="81" height="33" viewBox="0 0 81 33" fill="none" xmlns="http://www.w3.org/2000/svg">
<path d="M11.2535 3.7721C10.8786 4.14715 10.668 4.65577 10.668 5.1861C10.668 5.71642 10.8786 6.22504 11.2535 6.6001L21.1535 16.5001L11.2535 26.4001C10.8892 26.7773 10.6876 27.2825 10.6922 27.8069C10.6967 28.3313 10.9071 28.8329 11.2779 29.2037C11.6487 29.5746 12.1503 29.7849 12.6747 29.7894C13.1991 29.794 13.7043 29.5924 14.0815 29.2281L25.3955 17.9141C25.7704 17.539 25.981 17.0304 25.981 16.5001C25.981 15.9698 25.7704 15.4612 25.3955 15.0861L14.0815 3.7721C13.7065 3.39715 13.1979 3.18652 12.6675 3.18652C12.1372 3.18652 11.6286 3.39715 11.2535 3.7721Z" fill="#543CDA"/>
<path d="M27.2496 3.7721C26.8747 4.14715 26.6641 4.65577 26.6641 5.1861C26.6641 5.71642 26.8747 6.22504 27.2496 6.6001L37.1496 16.5001L27.2496 26.4001C26.8853 26.7773 26.6837 27.2825 26.6883 27.8069C26.6928 28.3313 26.9032 28.8329 27.274 29.2037C27.6448 29.5746 28.1464 29.7849 28.6708 29.7894C29.1952 29.794 29.7004 29.5924 30.0776 29.2281L41.3916 17.9141C41.7665 17.539 41.9771 17.0304 41.9771 16.5001C41.9771 15.9698 41.7665 15.4612 41.3916 15.0861L30.0776 3.7721C29.7026 3.39715 29.1939 3.18652 28.6636 3.18652C28.1333 3.18652 27.6247 3.39715 27.2496 3.7721Z" fill="#543CDA"/>
<path d="M43.2535 3.7721C42.8786 4.14715 42.668 4.65577 42.668 5.1861C42.668 5.71642 42.8786 6.22504 43.2535 6.6001L53.1535 16.5001L43.2535 26.4001C42.8892 26.7773 42.6876 27.2825 42.6922 27.8069C42.6967 28.3313 42.9071 28.8329 43.2779 29.2037C43.6487 29.5746 44.1503 29.7849 44.6747 29.7894C45.1991 29.794 45.7043 29.5924 46.0815 29.2281L57.3955 17.9141C57.7704 17.539 57.981 17.0304 57.981 16.5001C57.981 15.9698 57.7704 15.4612 57.3955 15.0861L46.0815 3.7721C45.7065 3.39715 45.1979 3.18652 44.6675 3.18652C44.1372 3.18652 43.6286 3.39715 43.2535 3.7721Z" fill="#543CDA"/>
<path d="M59.2535 3.7721C58.8786 4.14715 58.668 4.65577 58.668 5.1861C58.668 5.71642 58.8786 6.22504 59.2535 6.6001L69.1535 16.5001L59.2535 26.4001C58.8892 26.7773 58.6876 27.2825 58.6922 27.8069C58.6967 28.3313 58.9071 28.8329 59.2779 29.2037C59.6487 29.5746 60.1503 29.7849 60.6747 29.7894C61.1991 29.794 61.7043 29.5924 62.0815 29.2281L73.3955 17.9141C73.7704 17.539 73.981 17.0304 73.981 16.5001C73.981 15.9698 73.7704 15.4612 73.3955 15.0861L62.0815 3.7721C61.7065 3.39715 61.1979 3.18652 60.6675 3.18652C60.1372 3.18652 59.6286 3.39715 59.2535 3.7721Z" fill="#543CDA"/>
</svg>
