<svg width="32" height="80" viewBox="0 0 32 80" fill="none" xmlns="http://www.w3.org/2000/svg">
<path d="M28.7269 10.5851C28.3519 10.2101 27.8433 9.99951 27.3129 9.99951C26.7826 9.99951 26.274 10.2101 25.8989 10.5851L15.9989 20.4845L6.09893 10.5851C5.72172 10.2208 5.21652 10.0192 4.69212 10.0237C4.16773 10.0283 3.6661 10.2386 3.29529 10.6094C2.92447 10.9802 2.71414 11.4818 2.70958 12.0062C2.70502 12.5305 2.90661 13.0357 3.27093 13.4129L14.5849 24.7263C14.96 25.1012 15.4686 25.3119 15.9989 25.3119C16.5293 25.3119 17.0379 25.1012 17.4129 24.7263L28.7269 13.4129C29.1019 13.0379 29.3125 12.5293 29.3125 11.999C29.3125 11.4687 29.1019 10.9601 28.7269 10.5851Z" fill="#543CDA"/>
<path d="M28.7269 26.5853C28.3519 26.2104 27.8433 25.9998 27.3129 25.9998C26.7826 25.9998 26.274 26.2104 25.8989 26.5853L15.9989 36.4848L6.09893 26.5853C5.72172 26.221 5.21652 26.0194 4.69212 26.024C4.16773 26.0285 3.6661 26.2389 3.29529 26.6097C2.92447 26.9805 2.71414 27.4821 2.70958 28.0064C2.70502 28.5308 2.90661 29.036 3.27093 29.4132L14.5849 40.7266C14.96 41.1015 15.4686 41.3121 15.9989 41.3121C16.5293 41.3121 17.0379 41.1015 17.4129 40.7266L28.7269 29.4132C29.1019 29.0381 29.3125 28.5295 29.3125 27.9992C29.3125 27.4689 29.1019 26.9603 28.7269 26.5853Z" fill="#543CDA"/>
<path d="M28.7269 42.5775C28.3519 42.2026 27.8433 41.9919 27.3129 41.9919C26.7826 41.9919 26.274 42.2026 25.8989 42.5775L15.9989 52.477L6.09893 42.5775C5.72172 42.2132 5.21652 42.0116 4.69212 42.0162C4.16773 42.0207 3.6661 42.2311 3.29529 42.6018C2.92447 42.9726 2.71414 43.4742 2.70958 43.9986C2.70502 44.523 2.90661 45.0282 3.27093 45.4053L14.5849 56.7188C14.96 57.0937 15.4686 57.3043 15.9989 57.3043C16.5293 57.3043 17.0379 57.0937 17.4129 56.7188L28.7269 45.4053C29.1019 45.0303 29.3125 44.5217 29.3125 43.9914C29.3125 43.4611 29.1019 42.9525 28.7269 42.5775Z" fill="#543CDA"/>
<path d="M28.7269 58.5853C28.3519 58.2104 27.8433 57.9998 27.3129 57.9998C26.7826 57.9998 26.274 58.2104 25.8989 58.5853L15.9989 68.4848L6.09893 58.5853C5.72172 58.221 5.21652 58.0194 4.69212 58.024C4.16773 58.0285 3.6661 58.2389 3.29529 58.6097C2.92447 58.9805 2.71414 59.4821 2.70958 60.0064C2.70502 60.5308 2.90661 61.036 3.27093 61.4132L14.5849 72.7266C14.96 73.1015 15.4686 73.3121 15.9989 73.3121C16.5293 73.3121 17.0379 73.1015 17.4129 72.7266L28.7269 61.4132C29.1019 61.0381 29.3125 60.5295 29.3125 59.9992C29.3125 59.4689 29.1019 58.9603 28.7269 58.5853Z" fill="#543CDA"/>
</svg>
