<svg width="60" height="44" viewBox="0 0 60 44" fill="none" xmlns="http://www.w3.org/2000/svg">
<path fill-rule="evenodd" clip-rule="evenodd" d="M23.0787 14.4639L29.0968 9.02561C31.897 6.49523 35.6676 5.32292 39.4089 5.81955L47.3696 6.87632L58.4194 0.903749C59.133 0.517907 60 1.03481 60 1.84631V22.1527C60 23.5354 59.3331 24.8333 58.2086 25.638L50.7673 30.9626L42.714 24.2054C44.3319 23.6317 45.7136 22.6855 46.8536 21.5032C47.8804 20.4383 47.8496 18.7426 46.7846 17.7158C45.72 16.6889 44.0241 16.7198 42.9973 17.7847C42.2002 18.6113 41.279 19.1423 40.2011 19.3534C39.2618 19.5373 38.0658 19.5044 36.5619 19.0434L34.648 17.4376L29.3144 21.754C27.2192 23.4496 24.1386 23.0872 22.4941 20.9516C20.9664 18.9678 21.2209 16.1427 23.0787 14.4639ZM19.4869 10.4891L23.8081 6.58425C21.9735 6.08372 20.0298 5.98116 18.1096 6.31365L10.2429 7.67569L1.61344 3.03148C0.884143 2.63899 0 3.16721 0 3.99542L8.79146e-05 22.1508C9.47451e-05 23.5988 0.715959 24.9532 1.91241 25.7688L25.2906 41.7053C28.3171 43.7684 32.3078 43.7303 35.2941 41.6093L46.0324 33.9829L34.5864 24.379L32.6845 25.9182C28.25 29.5069 21.7302 28.74 18.2496 24.2201C15.0162 20.0214 15.555 14.0422 19.4869 10.4891Z" fill="#543CDA"/>
</svg>
