<svg width="20" height="20" viewBox="0 0 20 20" fill="none" xmlns="http://www.w3.org/2000/svg">
<path d="M14.4412 7.90267C14.8033 7.54183 14.7944 6.96541 14.4213 6.61519C14.0482 6.26498 13.4522 6.2736 13.0901 6.63444L8.28353 11.4241L6.90993 10.0553C6.54782 9.69451 5.95183 9.68589 5.57873 10.0361C5.20564 10.3863 5.19673 10.9627 5.55884 11.3236L7.60799 13.3656C7.78527 13.5422 8.02898 13.6419 8.28353 13.6419C8.53809 13.6419 8.78179 13.5422 8.95908 13.3656L14.4412 7.90267Z" fill="#009951"/>
<path fill-rule="evenodd" clip-rule="evenodd" d="M12.3552 0.921486C11.042 -0.307162 8.95797 -0.307162 7.64479 0.921486C7.31125 1.23356 6.84747 1.3793 6.38797 1.31644C4.57887 1.06896 2.89283 2.2537 2.57715 3.99422C2.49697 4.4363 2.21034 4.81785 1.80039 5.02822C0.186395 5.85643 -0.457616 7.77339 0.344787 9.36095C0.548593 9.76418 0.548593 10.2358 0.344787 10.639C-0.457616 12.2266 0.186395 14.1436 1.80039 14.9718C2.21034 15.1821 2.49697 15.5637 2.57715 16.0058C2.89283 17.7463 4.57887 18.931 6.38797 18.6836C6.84747 18.6207 7.31125 18.7664 7.64479 19.0785C8.95797 20.3072 11.042 20.3072 12.3552 19.0785C12.6888 18.7664 13.1525 18.6207 13.612 18.6836C15.4211 18.931 17.1072 17.7463 17.4229 16.0058C17.503 15.5637 17.7897 15.1821 18.1996 14.9718C19.8136 14.1436 20.4576 12.2266 19.6552 10.639C19.4514 10.2358 19.4514 9.76418 19.6552 9.36095C20.4576 7.77339 19.8136 5.85643 18.1996 5.02822C17.7897 4.81785 17.503 4.4363 17.4229 3.99422C17.1072 2.2537 15.4211 1.06896 13.612 1.31644C13.1525 1.3793 12.6888 1.23356 12.3552 0.921486ZM8.95389 2.23026C9.53717 1.68453 10.4628 1.68453 11.0461 2.23026C11.797 2.93285 12.8412 3.26098 13.8757 3.11946C14.6793 3.00953 15.4281 3.53576 15.5684 4.30884C15.7489 5.30414 16.3942 6.16318 17.3172 6.63679C18.034 7.00465 18.3201 7.8561 17.9637 8.56125C17.5048 9.46908 17.5048 10.5309 17.9637 11.4388C18.3201 12.1439 18.034 12.9953 17.3172 13.3632C16.3942 13.8368 15.7489 14.6959 15.5684 15.6912C15.4281 16.4642 14.6793 16.9905 13.8757 16.8805C12.8412 16.739 11.797 17.0671 11.0461 17.7697C10.4628 18.3155 9.53717 18.3155 8.95389 17.7697C8.20296 17.0671 7.1588 16.739 6.12428 16.8805C5.32074 16.9905 4.57186 16.4642 4.43164 15.6912C4.25112 14.6959 3.6058 13.8368 2.68284 13.3632C1.96596 12.9953 1.67991 12.1439 2.03631 11.4388C2.49516 10.5309 2.49516 9.46908 2.03631 8.56125C1.67991 7.8561 1.96596 7.00465 2.68284 6.63679C3.6058 6.16318 4.25112 5.30414 4.43164 4.30884C4.57186 3.53576 5.32074 3.00953 6.12428 3.11946C7.1588 3.26098 8.20296 2.93285 8.95389 2.23026Z" fill="#009951"/>
</svg>
