<svg width="51" height="50" viewBox="0 0 51 50" fill="none" xmlns="http://www.w3.org/2000/svg">
<rect x="0.5" width="50" height="50" rx="25" fill="white"/>
<path fill-rule="evenodd" clip-rule="evenodd" d="M18.5 14.25C17.7707 14.25 17.0712 14.5397 16.5555 15.0555C16.0397 15.5712 15.75 16.2707 15.75 17C15.75 17.7293 16.0397 18.4288 16.5555 18.9445C17.0712 19.4603 17.7707 19.75 18.5 19.75C19.2293 19.75 19.9288 19.4603 20.4445 18.9445C20.9603 18.4288 21.25 17.7293 21.25 17C21.25 16.2707 20.9603 15.5712 20.4445 15.0555C19.9288 14.5397 19.2293 14.25 18.5 14.25ZM17.25 17C17.25 16.6685 17.3817 16.3505 17.6161 16.1161C17.8505 15.8817 18.1685 15.75 18.5 15.75C18.8315 15.75 19.1495 15.8817 19.3839 16.1161C19.6183 16.3505 19.75 16.6685 19.75 17C19.75 17.3315 19.6183 17.6495 19.3839 17.8839C19.1495 18.1183 18.8315 18.25 18.5 18.25C18.1685 18.25 17.8505 18.1183 17.6161 17.8839C17.3817 17.6495 17.25 17.3315 17.25 17ZM15.75 21C15.75 20.8011 15.829 20.6103 15.9697 20.4697C16.1103 20.329 16.3011 20.25 16.5 20.25H20.5C20.6989 20.25 20.8897 20.329 21.0303 20.4697C21.171 20.6103 21.25 20.8011 21.25 21V34C21.25 34.1989 21.171 34.3897 21.0303 34.5303C20.8897 34.671 20.6989 34.75 20.5 34.75H16.5C16.3011 34.75 16.1103 34.671 15.9697 34.5303C15.829 34.3897 15.75 34.1989 15.75 34V21ZM17.25 21.75V33.25H19.75V21.75H17.25ZM22.75 21C22.75 20.8011 22.829 20.6103 22.9697 20.4697C23.1103 20.329 23.3011 20.25 23.5 20.25H27.5C27.6989 20.25 27.8897 20.329 28.0303 20.4697C28.171 20.6103 28.25 20.8011 28.25 21V21.434L28.685 21.247C29.4351 20.9266 30.2307 20.7258 31.043 20.652C33.818 20.4 36.25 22.58 36.25 25.38V34C36.25 34.1989 36.171 34.3897 36.0303 34.5303C35.8897 34.671 35.6989 34.75 35.5 34.75H31.5C31.3011 34.75 31.1103 34.671 30.9697 34.5303C30.829 34.3897 30.75 34.1989 30.75 34V27C30.75 26.6685 30.6183 26.3505 30.3839 26.1161C30.1495 25.8817 29.8315 25.75 29.5 25.75C29.1685 25.75 28.8505 25.8817 28.6161 26.1161C28.3817 26.3505 28.25 26.6685 28.25 27V34C28.25 34.1989 28.171 34.3897 28.0303 34.5303C27.8897 34.671 27.6989 34.75 27.5 34.75H23.5C23.3011 34.75 23.1103 34.671 22.9697 34.5303C22.829 34.3897 22.75 34.1989 22.75 34V21ZM24.25 21.75V33.25H26.75V27C26.75 26.2707 27.0397 25.5712 27.5555 25.0555C28.0712 24.5397 28.7707 24.25 29.5 24.25C30.2293 24.25 30.9288 24.5397 31.4445 25.0555C31.9603 25.5712 32.25 26.2707 32.25 27V33.25H34.75V25.38C34.75 23.476 33.089 21.972 31.18 22.146C30.5241 22.2055 29.8817 22.3675 29.276 22.626L27.796 23.261C27.6818 23.31 27.5573 23.3299 27.4336 23.3189C27.3098 23.3079 27.1907 23.2663 27.087 23.1979C26.9833 23.1295 26.8982 23.0364 26.8394 22.927C26.7806 22.8176 26.7499 22.6952 26.75 22.571V21.75H24.25Z" fill="black"/>
</svg>
