<svg width="51" height="50" viewBox="0 0 51 50" fill="none" xmlns="http://www.w3.org/2000/svg">
<rect x="0.5" width="50" height="50" rx="25" fill="white"/>
<path d="M29.5 20C29.5 19.7348 29.6054 19.4804 29.7929 19.2929C29.9804 19.1054 30.2348 19 30.5 19C30.7652 19 31.0196 19.1054 31.2071 19.2929C31.3946 19.4804 31.5 19.7348 31.5 20C31.5 20.2652 31.3946 20.5196 31.2071 20.7071C31.0196 20.8946 30.7652 21 30.5 21C30.2348 21 29.9804 20.8946 29.7929 20.7071C29.6054 20.5196 29.5 20.2652 29.5 20Z" fill="#161515"/>
<path fill-rule="evenodd" clip-rule="evenodd" d="M25.5 20.25C24.2402 20.25 23.032 20.7504 22.1412 21.6412C21.2504 22.532 20.75 23.7402 20.75 25C20.75 26.2598 21.2504 27.468 22.1412 28.3588C23.032 29.2496 24.2402 29.75 25.5 29.75C26.7598 29.75 27.968 29.2496 28.8588 28.3588C29.7496 27.468 30.25 26.2598 30.25 25C30.25 23.7402 29.7496 22.532 28.8588 21.6412C27.968 20.7504 26.7598 20.25 25.5 20.25ZM22.25 25C22.25 24.138 22.5924 23.3114 23.2019 22.7019C23.8114 22.0924 24.638 21.75 25.5 21.75C26.362 21.75 27.1886 22.0924 27.7981 22.7019C28.4076 23.3114 28.75 24.138 28.75 25C28.75 25.862 28.4076 26.6886 27.7981 27.2981C27.1886 27.9076 26.362 28.25 25.5 28.25C24.638 28.25 23.8114 27.9076 23.2019 27.2981C22.5924 26.6886 22.25 25.862 22.25 25Z" fill="#161515"/>
<path fill-rule="evenodd" clip-rule="evenodd" d="M30.758 15.8332C27.2634 15.4456 23.7366 15.4456 20.242 15.8332C18.23 16.0582 16.605 17.6432 16.369 19.6652C15.9551 23.2098 15.9551 26.7905 16.369 30.3352C16.605 32.3572 18.229 33.9422 20.242 34.1672C23.7367 34.5539 27.2633 34.5539 30.758 34.1672C32.77 33.9422 34.395 32.3572 34.631 30.3352C35.0449 26.7905 35.0449 23.2098 34.631 19.6652C34.395 17.6432 32.771 16.0582 30.758 15.8332ZM20.408 17.3232C23.7923 16.9479 27.2077 16.9479 30.592 17.3232C31.922 17.4732 32.987 18.5222 33.142 19.8402C33.5432 23.2685 33.5432 26.7319 33.142 30.1602C33.0618 30.8052 32.7666 31.4044 32.3039 31.8609C31.8412 32.3174 31.2381 32.6047 30.592 32.6762C27.2077 33.0515 23.7923 33.0515 20.408 32.6762C19.762 32.6047 19.1589 32.3174 18.6962 31.8609C18.2335 31.4044 17.9382 30.8052 17.858 30.1602C17.4569 26.7319 17.4569 23.2685 17.858 19.8402C17.9382 19.1951 18.2335 18.5959 18.6962 18.1394C19.1589 17.6829 19.762 17.3947 20.408 17.3232Z" fill="#161515"/>
</svg>
