<svg width="60" height="61" viewBox="0 0 60 61" fill="none" xmlns="http://www.w3.org/2000/svg">
<rect y="0.5" width="60" height="60" rx="30" fill="#543CDA" fill-opacity="0.2"/>
<path fill-rule="evenodd" clip-rule="evenodd" d="M30.0011 24C27.5158 24 25.5011 26.0147 25.5011 28.5C25.5011 30.9853 27.5158 33 30.0011 33C32.4864 33 34.5011 30.9853 34.5011 28.5C34.5011 26.0147 32.4864 24 30.0011 24ZM27.5011 28.5C27.5011 27.1193 28.6204 26 30.0011 26C31.3818 26 32.5011 27.1193 32.5011 28.5C32.5011 29.8807 31.3818 31 30.0011 31C28.6204 31 27.5011 29.8807 27.5011 28.5Z" fill="#543CDA"/>
<path fill-rule="evenodd" clip-rule="evenodd" d="M25.8104 22.092C28.3481 20.4002 31.6542 20.4002 34.1919 22.092C37.6228 24.3792 38.586 28.995 36.3562 32.4635L32.5247 38.4237C31.3438 40.2607 28.6585 40.2607 27.4776 38.4237L23.646 32.4635C21.4163 28.995 22.3795 24.3792 25.8104 22.092ZM26.9198 23.7561C28.7857 22.5121 31.2166 22.5121 33.0825 23.7561C35.6051 25.4378 36.3134 28.8317 34.6739 31.382L30.8423 37.3422C30.4487 37.9546 29.5536 37.9546 29.16 37.3422L25.3284 31.382C23.6889 28.8317 24.3971 25.4378 26.9198 23.7561Z" fill="#543CDA"/>
</svg>
