<svg width="24" height="150" viewBox="0 0 24 150" fill="none" xmlns="http://www.w3.org/2000/svg">
<path d="M10.9393 149.061C11.5251 149.646 12.4749 149.646 13.0607 149.061L22.6066 139.515C23.1924 138.929 23.1924 137.979 22.6066 137.393C22.0208 136.808 21.0711 136.808 20.4853 137.393L12 145.879L3.51472 137.393C2.92893 136.808 1.97919 136.808 1.3934 137.393C0.807611 137.979 0.807611 138.929 1.3934 139.515L10.9393 149.061ZM12 0L10.5 0V4.11111H12H13.5V0L12 0ZM12 12.3333H10.5V20.5556H12H13.5V12.3333H12ZM12 28.7778H10.5V37H12H13.5V28.7778H12ZM12 45.2222H10.5V53.4444H12H13.5V45.2222H12ZM12 61.6667H10.5V69.8889H12H13.5V61.6667H12ZM12 78.1111H10.5V86.3333H12H13.5V78.1111H12ZM12 94.5555H10.5V102.778H12H13.5V94.5555H12ZM12 111H10.5V119.222H12H13.5V111H12ZM12 127.444H10.5V135.667H12H13.5V127.444H12ZM12 143.889H10.5L10.5 148H12H13.5L13.5 143.889H12Z" fill="#543CDA"/>
</svg>
