<svg width="150" height="23" viewBox="0 0 150 23" fill="none" xmlns="http://www.w3.org/2000/svg">
<path d="M0.939346 10.4393C0.353546 11.0251 0.353546 11.9749 0.939346 12.5607L10.4853 22.1066C11.0711 22.6924 12.0208 22.6924 12.6066 22.1066C13.1924 21.5208 13.1924 20.5711 12.6066 19.9853L4.12132 11.5L12.6066 3.01472C13.1924 2.42893 13.1924 1.47919 12.6066 0.893398C12.0208 0.307611 11.0711 0.307611 10.4853 0.893398L0.939346 10.4393ZM150 11.5V10H145.889V11.5V13H150V11.5ZM137.667 11.5V10H129.444V11.5V13H137.667V11.5ZM121.222 11.5V10H113V11.5V13H121.222V11.5ZM104.778 11.5V10L96.5556 10V11.5V13L104.778 13V11.5ZM88.3333 11.5V10L80.1111 10V11.5V13L88.3333 13V11.5ZM71.8889 11.5V10L63.6667 10V11.5V13L71.8889 13V11.5ZM55.4445 11.5V10L47.2222 10V11.5V13L55.4445 13V11.5ZM39 11.5V10H30.7778V11.5V13H39V11.5ZM22.5556 11.5V10H14.3333V11.5V13H22.5556V11.5ZM6.11111 11.5V10H2V11.5V13H6.11111V11.5Z" fill="#543CDA"/>
</svg>
