<svg width="150" height="23" viewBox="0 0 150 23" fill="none" xmlns="http://www.w3.org/2000/svg">
<path d="M149.061 12.5607C149.646 11.9749 149.646 11.0251 149.061 10.4393L139.515 0.893398C138.929 0.307611 137.979 0.307611 137.393 0.893398C136.808 1.47919 136.808 2.42893 137.393 3.01472L145.879 11.5L137.393 19.9853C136.808 20.5711 136.808 21.5208 137.393 22.1066C137.979 22.6924 138.929 22.6924 139.515 22.1066L149.061 12.5607ZM0 11.5V13H4.11111V11.5V10H0V11.5ZM12.3333 11.5V13H20.5556V11.5V10H12.3333V11.5ZM28.7778 11.5V13H37V11.5V10H28.7778V11.5ZM45.2222 11.5V13H53.4444V11.5V10H45.2222V11.5ZM61.6667 11.5V13H69.8889V11.5V10H61.6667V11.5ZM78.1111 11.5V13H86.3333V11.5V10H78.1111V11.5ZM94.5555 11.5V13H102.778V11.5V10H94.5555V11.5ZM111 11.5V13H119.222V11.5V10H111V11.5ZM127.444 11.5V13H135.667V11.5V10H127.444V11.5ZM143.889 11.5V13H148V11.5V10H143.889V11.5Z" fill="#543CDA"/>
</svg>
