<svg width="33" height="32" viewBox="0 0 33 32" fill="none" xmlns="http://www.w3.org/2000/svg">
<path fill-rule="evenodd" clip-rule="evenodd" d="M31.2695 4.57255C31.2695 2.72071 29.4284 1.43265 27.6887 2.06747L17.9581 5.61828L8.18709 6.38233C5.4113 6.59939 3.26953 8.91517 3.26953 11.6994V13.6339C3.26953 16.4182 5.4113 18.734 8.18709 18.951L8.73722 18.994L9.67551 27.1452C9.90652 29.152 11.6056 30.6667 13.6256 30.6667C16.0085 30.6667 17.8563 28.5851 17.5738 26.219L16.7862 19.6234L17.9581 19.7151L27.6887 23.2659C29.4284 23.9007 31.2695 22.6126 31.2695 20.7608V4.57255ZM8.39498 9.04088L16.9106 8.375V16.9583L8.39498 16.2925C7.00708 16.1839 5.9362 15.026 5.9362 13.6339V11.6994C5.9362 10.3073 7.00708 9.14941 8.39498 9.04088ZM28.6029 20.7608L19.5772 17.4672V7.86612L28.6029 4.57256L28.6029 20.7608ZM12.3247 26.8402L11.4459 19.2058L14.0753 19.4114L14.9259 26.5352C15.019 27.3145 14.4104 28 13.6256 28C12.9603 28 12.4008 27.5012 12.3247 26.8402Z" fill="black"/>
</svg>
