<svg width="60" height="60" viewBox="0 0 60 60" fill="none" xmlns="http://www.w3.org/2000/svg">
<rect width="60" height="60" rx="30" fill="#543CDA"/>
<path d="M30.1136 38.7386C29.2159 38.733 28.3494 38.5824 27.5142 38.2869C26.6847 37.9915 25.9403 37.5114 25.2812 36.8466C24.6222 36.1818 24.0994 35.3011 23.7131 34.2045C23.3324 33.108 23.142 31.7614 23.142 30.1648C23.1477 28.6989 23.3153 27.3892 23.6449 26.2358C23.9801 25.0767 24.4574 24.0937 25.0767 23.2869C25.7017 22.4801 26.4489 21.8665 27.3182 21.446C28.1875 21.0199 29.1619 20.8068 30.2415 20.8068C31.4063 20.8068 32.4347 21.0341 33.3267 21.4886C34.2188 21.9375 34.9347 22.5483 35.4744 23.321C36.0199 24.0938 36.3494 24.9602 36.4631 25.9205H32.8239C32.6818 25.3125 32.3835 24.8352 31.929 24.4886C31.4744 24.142 30.9119 23.9688 30.2415 23.9688C29.1051 23.9688 28.2415 24.4631 27.6506 25.4517C27.0653 26.4403 26.767 27.7841 26.7557 29.483H26.875C27.1364 28.9659 27.4886 28.5256 27.9318 28.1619C28.3807 27.7926 28.8892 27.5114 29.4574 27.3182C30.0312 27.1193 30.6364 27.0199 31.2727 27.0199C32.3068 27.0199 33.2273 27.2642 34.0341 27.7528C34.8409 28.2358 35.4773 28.9006 35.9432 29.7472C36.4091 30.5937 36.642 31.5625 36.642 32.6534C36.642 33.8352 36.3665 34.8864 35.8153 35.8068C35.2699 36.7273 34.5057 37.4489 33.5227 37.9716C32.5455 38.4886 31.4091 38.7443 30.1136 38.7386ZM30.0966 35.8409C30.6648 35.8409 31.1733 35.7045 31.6222 35.4318C32.071 35.1591 32.4233 34.7898 32.679 34.3239C32.9347 33.858 33.0625 33.3352 33.0625 32.7557C33.0625 32.1761 32.9347 31.6562 32.679 31.196C32.429 30.7358 32.0824 30.3693 31.6392 30.0966C31.196 29.8239 30.6903 29.6875 30.1222 29.6875C29.696 29.6875 29.3011 29.767 28.9375 29.9261C28.5795 30.0852 28.2642 30.3068 27.9915 30.5909C27.7244 30.875 27.5142 31.2045 27.3608 31.5795C27.2074 31.9489 27.1307 32.3437 27.1307 32.7642C27.1307 33.3267 27.2585 33.8409 27.5142 34.3068C27.7756 34.7727 28.1278 35.1449 28.571 35.4233C29.0199 35.7017 29.5284 35.8409 30.0966 35.8409Z" fill="white"/>
</svg>
