<svg width="60" height="60" viewBox="0 0 60 60" fill="none" xmlns="http://www.w3.org/2000/svg">
<rect width="60" height="60" rx="30" fill="#543CDA"/>
<path d="M24.5085 21.0455V38.5H20.8182V24.5483H20.7159L16.7188 27.054V23.7812L21.0398 21.0455H24.5085ZM35.5007 38.8835C34.0348 38.8778 32.7734 38.517 31.7166 37.8011C30.6655 37.0852 29.8558 36.0483 29.2876 34.6903C28.7251 33.3324 28.4467 31.6989 28.4524 29.7898C28.4524 27.8864 28.7337 26.2642 29.2962 24.9233C29.8643 23.5824 30.674 22.5625 31.7251 21.8636C32.782 21.1591 34.0405 20.8068 35.5007 20.8068C36.9609 20.8068 38.2166 21.1591 39.2678 21.8636C40.3246 22.5682 41.1371 23.5909 41.7053 24.9318C42.2734 26.267 42.5547 27.8864 42.549 29.7898C42.549 31.7045 42.2649 33.3409 41.6967 34.6989C41.1342 36.0568 40.3274 37.0937 39.2763 37.8097C38.2251 38.5256 36.9666 38.8835 35.5007 38.8835ZM35.5007 35.8239C36.5007 35.8239 37.299 35.321 37.8956 34.3153C38.4922 33.3097 38.7876 31.8011 38.782 29.7898C38.782 28.4659 38.6456 27.3636 38.3729 26.483C38.1058 25.6023 37.7251 24.9403 37.2308 24.4972C36.7422 24.054 36.1655 23.8324 35.5007 23.8324C34.5064 23.8324 33.7109 24.3295 33.1143 25.3239C32.5178 26.3182 32.2166 27.8068 32.2109 29.7898C32.2109 31.1307 32.3445 32.25 32.6115 33.1477C32.8842 34.0398 33.2678 34.7102 33.7621 35.1591C34.2564 35.6023 34.8359 35.8239 35.5007 35.8239Z" fill="white"/>
</svg>
