<svg width="60" height="60" viewBox="0 0 60 60" fill="none" xmlns="http://www.w3.org/2000/svg">
<rect width="60" height="60" rx="30" fill="#543CDA"/>
<path d="M29.7301 20.8068C30.6278 20.8068 31.4915 20.9574 32.321 21.2585C33.1563 21.5597 33.9006 22.0398 34.554 22.6989C35.2131 23.358 35.733 24.233 36.1136 25.3239C36.5 26.4091 36.696 27.7415 36.7017 29.321C36.7017 30.804 36.5341 32.1278 36.1989 33.2926C35.8693 34.4517 35.3949 35.4375 34.7756 36.25C34.1563 37.0625 33.4091 37.6818 32.5341 38.108C31.6591 38.5284 30.6818 38.7386 29.6023 38.7386C28.4375 38.7386 27.4091 38.5142 26.517 38.0653C25.625 37.6108 24.9063 36.9943 24.3608 36.2159C23.821 35.4318 23.4943 34.5511 23.3807 33.5739H27.0199C27.1619 34.2102 27.4602 34.7045 27.9148 35.0568C28.3693 35.4034 28.9318 35.5767 29.6023 35.5767C30.7386 35.5767 31.6023 35.0824 32.1932 34.0938C32.7841 33.0994 33.0824 31.7386 33.0881 30.0114H32.9688C32.7074 30.5227 32.3551 30.9631 31.9119 31.3324C31.4688 31.696 30.9602 31.9773 30.3864 32.1761C29.8182 32.375 29.2131 32.4744 28.571 32.4744C27.5426 32.4744 26.625 32.233 25.8182 31.75C25.0114 31.267 24.375 30.6023 23.9091 29.7557C23.4432 28.9091 23.2102 27.9432 23.2102 26.858C23.2045 25.6875 23.4744 24.6449 24.0199 23.7301C24.5653 22.8153 25.3267 22.0994 26.304 21.5824C27.2869 21.0597 28.429 20.8011 29.7301 20.8068ZM29.7557 23.7045C29.1818 23.7045 28.6705 23.8409 28.2216 24.1136C27.7784 24.3864 27.4261 24.7528 27.1648 25.2131C26.9091 25.6733 26.7841 26.1875 26.7898 26.7557C26.7898 27.3295 26.9148 27.8466 27.1648 28.3068C27.4205 28.7614 27.767 29.125 28.2045 29.3977C28.6477 29.6648 29.1534 29.7983 29.7216 29.7983C30.1477 29.7983 30.5426 29.7187 30.9062 29.5597C31.2699 29.4006 31.5852 29.1818 31.8523 28.9034C32.125 28.6193 32.3381 28.2926 32.4915 27.9233C32.6449 27.554 32.7216 27.1619 32.7216 26.7472C32.7159 26.196 32.5852 25.6903 32.3295 25.2301C32.0739 24.7699 31.7216 24.4006 31.2727 24.1222C30.8239 23.8437 30.3182 23.7045 29.7557 23.7045Z" fill="white"/>
</svg>
