<svg width="60" height="60" viewBox="0 0 60 60" fill="none" xmlns="http://www.w3.org/2000/svg">
<rect width="60" height="60" rx="30" fill="#543CDA"/>
<path d="M29.9261 38.7386C28.6136 38.7386 27.446 38.5256 26.4233 38.0994C25.4063 37.6676 24.608 37.0795 24.0284 36.3352C23.4489 35.5909 23.1591 34.7472 23.1591 33.804C23.1591 33.0767 23.3239 32.4091 23.6534 31.8011C23.9886 31.1875 24.4432 30.679 25.017 30.2756C25.5909 29.8665 26.233 29.6051 26.9432 29.4915V29.3722C26.0114 29.1847 25.2557 28.733 24.6761 28.017C24.0966 27.2955 23.8068 26.4574 23.8068 25.5028C23.8068 24.5994 24.071 23.7955 24.5994 23.0909C25.1278 22.3807 25.8523 21.8239 26.7727 21.4205C27.6989 21.0114 28.75 20.8068 29.9261 20.8068C31.1023 20.8068 32.1506 21.0114 33.071 21.4205C33.9972 21.8295 34.7244 22.3892 35.2528 23.0994C35.7813 23.804 36.0483 24.6051 36.054 25.5028C36.0483 26.4631 35.7528 27.3011 35.1676 28.017C34.5824 28.733 33.8324 29.1847 32.9176 29.3722V29.4915C33.6165 29.6051 34.25 29.8665 34.8182 30.2756C35.392 30.679 35.8466 31.1875 36.1818 31.8011C36.5227 32.4091 36.696 33.0767 36.7017 33.804C36.696 34.7472 36.4034 35.5909 35.8239 36.3352C35.2443 37.0795 34.4432 37.6676 33.4205 38.0994C32.4034 38.5256 31.2386 38.7386 29.9261 38.7386ZM29.9261 36.0284C30.5114 36.0284 31.0227 35.9233 31.4602 35.7131C31.8977 35.4972 32.2386 35.2017 32.483 34.8267C32.733 34.446 32.858 34.0085 32.858 33.5142C32.858 33.0085 32.7301 32.5625 32.4744 32.1761C32.2188 31.7841 31.8722 31.4773 31.4347 31.2557C30.9972 31.0284 30.4943 30.9148 29.9261 30.9148C29.3636 30.9148 28.8608 31.0284 28.4176 31.2557C27.9744 31.4773 27.625 31.7841 27.3693 32.1761C27.1193 32.5625 26.9943 33.0085 26.9943 33.5142C26.9943 34.0085 27.1165 34.446 27.3608 34.8267C27.6051 35.2017 27.9489 35.4972 28.392 35.7131C28.8352 35.9233 29.3466 36.0284 29.9261 36.0284ZM29.9261 28.2301C30.4148 28.2301 30.8494 28.1307 31.2301 27.9318C31.6108 27.733 31.9091 27.4574 32.125 27.1051C32.3409 26.7528 32.4489 26.3466 32.4489 25.8864C32.4489 25.4318 32.3409 25.0341 32.125 24.6932C31.9091 24.3466 31.6136 24.0767 31.2386 23.8835C30.8636 23.6847 30.4261 23.5852 29.9261 23.5852C29.4318 23.5852 28.9943 23.6847 28.6136 23.8835C28.233 24.0767 27.9347 24.3466 27.7188 24.6932C27.5085 25.0341 27.4034 25.4318 27.4034 25.8864C27.4034 26.3466 27.5114 26.7528 27.7273 27.1051C27.9432 27.4574 28.2415 27.733 28.6222 27.9318C29.0028 28.1307 29.4375 28.2301 29.9261 28.2301Z" fill="white"/>
</svg>
