<svg width="60" height="60" viewBox="0 0 60 60" fill="none" xmlns="http://www.w3.org/2000/svg">
<rect width="60" height="60" rx="30" fill="#543CDA"/>
<path d="M23.4148 38.5V35.8409L29.6278 30.0881C30.1563 29.5767 30.5994 29.1165 30.9574 28.7074C31.321 28.2983 31.5966 27.8977 31.7841 27.5057C31.9716 27.108 32.0653 26.679 32.0653 26.2188C32.0653 25.7074 31.9489 25.267 31.7159 24.8977C31.483 24.5227 31.1648 24.2358 30.7614 24.0369C30.358 23.8324 29.9006 23.7301 29.3892 23.7301C28.8551 23.7301 28.3892 23.8381 27.9915 24.054C27.5938 24.2699 27.2869 24.5795 27.071 24.983C26.8551 25.3864 26.7472 25.8665 26.7472 26.4233H23.2443C23.2443 25.2812 23.5028 24.2898 24.0199 23.4489C24.5369 22.608 25.2614 21.9574 26.1932 21.4972C27.125 21.0369 28.1989 20.8068 29.4148 20.8068C30.6648 20.8068 31.7528 21.0284 32.679 21.4716C33.6108 21.9091 34.3352 22.517 34.8523 23.2955C35.3693 24.0739 35.6278 24.9659 35.6278 25.9716C35.6278 26.6307 35.4972 27.2812 35.2358 27.9233C34.9801 28.5653 34.5227 29.2784 33.8636 30.0625C33.2045 30.8409 32.2756 31.7756 31.0767 32.8665L28.5284 35.3636V35.483H35.858V38.5H23.4148Z" fill="white"/>
</svg>
