<svg width="60" height="60" viewBox="0 0 60 60" fill="none" xmlns="http://www.w3.org/2000/svg">
<rect width="60" height="60" rx="30" fill="#543CDA"/>
<path d="M29.8665 38.7386C28.5938 38.7386 27.4602 38.5199 26.4659 38.0824C25.4773 37.6392 24.696 37.0312 24.1222 36.2585C23.554 35.4801 23.2614 34.5824 23.2443 33.5653H26.9602C26.983 33.9915 27.1222 34.3665 27.3778 34.6903C27.6392 35.0085 27.9858 35.2557 28.4176 35.4318C28.8494 35.608 29.3352 35.696 29.875 35.696C30.4375 35.696 30.9347 35.5966 31.3665 35.3977C31.7983 35.1989 32.1364 34.9233 32.3807 34.571C32.625 34.2187 32.7472 33.8125 32.7472 33.3523C32.7472 32.8864 32.6165 32.4744 32.3551 32.1165C32.0994 31.7528 31.7301 31.4687 31.2472 31.2642C30.7699 31.0597 30.2017 30.9574 29.5426 30.9574H27.9148V28.2472H29.5426C30.0994 28.2472 30.5909 28.1506 31.017 27.9574C31.4489 27.7642 31.7841 27.4972 32.0227 27.1562C32.2614 26.8097 32.3807 26.4062 32.3807 25.946C32.3807 25.5085 32.2756 25.125 32.0653 24.7955C31.8608 24.4602 31.571 24.1989 31.196 24.0114C30.8267 23.8239 30.3949 23.7301 29.9006 23.7301C29.4006 23.7301 28.9432 23.821 28.5284 24.0028C28.1136 24.179 27.7812 24.4318 27.5312 24.7614C27.2812 25.0909 27.1477 25.4773 27.1307 25.9205H23.5938C23.6108 24.9148 23.8977 24.0284 24.4545 23.2614C25.0114 22.4943 25.7614 21.8949 26.7045 21.4631C27.6534 21.0256 28.7244 20.8068 29.9176 20.8068C31.1222 20.8068 32.1761 21.0256 33.0795 21.4631C33.983 21.9006 34.6847 22.4915 35.1847 23.2358C35.6903 23.9744 35.9403 24.804 35.9347 25.7244C35.9403 26.7017 35.6364 27.517 35.0227 28.1705C34.4148 28.8239 33.6222 29.2386 32.6449 29.4148V29.5511C33.929 29.7159 34.9063 30.1619 35.5767 30.8892C36.2528 31.6108 36.5881 32.5142 36.5824 33.5994C36.5881 34.5938 36.3011 35.4773 35.7216 36.25C35.1477 37.0227 34.3551 37.6307 33.3438 38.0739C32.3324 38.517 31.1733 38.7386 29.8665 38.7386Z" fill="white"/>
</svg>
