<svg width="60" height="60" viewBox="0 0 60 60" fill="none" xmlns="http://www.w3.org/2000/svg">
<rect width="60" height="60" rx="30" fill="#543CDA"/>
<path d="M29.7898 38.7386C28.5852 38.7386 27.5114 38.517 26.5682 38.0739C25.6307 37.6307 24.8864 37.0199 24.3352 36.2415C23.7841 35.4631 23.4972 34.571 23.4744 33.5653H27.054C27.0938 34.2415 27.3778 34.7898 27.9062 35.2102C28.4347 35.6307 29.0625 35.8409 29.7898 35.8409C30.3693 35.8409 30.8807 35.7131 31.3239 35.4574C31.7727 35.196 32.1222 34.8352 32.3722 34.375C32.6278 33.9091 32.7557 33.375 32.7557 32.7727C32.7557 32.1591 32.625 31.6193 32.3636 31.1534C32.108 30.6875 31.7528 30.3239 31.2983 30.0625C30.8438 29.8011 30.3239 29.6676 29.7386 29.6619C29.2273 29.6619 28.7301 29.767 28.2472 29.9773C27.7699 30.1875 27.3977 30.4744 27.1307 30.8381L23.8494 30.25L24.6761 21.0455H35.3466V24.0625H27.7188L27.267 28.4347H27.3693C27.6761 28.0028 28.1392 27.6449 28.7585 27.3608C29.3778 27.0767 30.071 26.9347 30.8381 26.9347C31.8892 26.9347 32.8267 27.1818 33.6506 27.6761C34.4744 28.1705 35.125 28.8494 35.6023 29.7131C36.0795 30.571 36.3153 31.5597 36.3097 32.679C36.3153 33.8551 36.0426 34.9006 35.4915 35.8153C34.946 36.7244 34.1818 37.4403 33.1989 37.9631C32.2216 38.4801 31.0852 38.7386 29.7898 38.7386Z" fill="white"/>
</svg>
