<svg width="87" height="87" viewBox="0 0 87 87" fill="none" xmlns="http://www.w3.org/2000/svg">
<rect x="0.5" y="0.5" width="86" height="86" rx="43" fill="white"/>
<path d="M36.147 31.0455V56.5H30.0071V36.7876H29.858L24.1655 40.2678V34.9482L30.4421 31.0455H36.147ZM51.8016 57.1214C49.5809 57.1214 47.6669 56.5953 46.0594 55.543C44.4519 54.4824 43.2132 52.9619 42.3431 50.9815C41.4731 48.9929 41.0422 46.6024 41.0505 43.81C41.0588 41.0176 41.4938 38.6478 42.3556 36.7006C43.2256 34.7451 44.4602 33.2578 46.0594 32.2386C47.6669 31.2112 49.5809 30.6974 51.8016 30.6974C54.0222 30.6974 55.9363 31.2112 57.5438 32.2386C59.1595 33.2578 60.4024 34.7451 61.2725 36.7006C62.1425 38.6561 62.5734 41.0259 62.5651 43.81C62.5651 46.6107 62.1301 49.0053 61.26 50.994C60.39 52.9826 59.1513 54.5031 57.5438 55.5554C55.9446 56.5994 54.0305 57.1214 51.8016 57.1214ZM51.8016 52.0877C53.1273 52.0877 54.2004 51.4124 55.0207 50.0618C55.841 48.7029 56.247 46.619 56.2387 43.81C56.2387 41.9705 56.0523 40.4542 55.6794 39.261C55.3066 38.0595 54.7887 37.1647 54.1258 36.5763C53.4629 35.988 52.6882 35.6939 51.8016 35.6939C50.4841 35.6939 49.4194 36.3609 48.6073 37.695C47.7953 39.0207 47.3852 41.0591 47.3769 43.81C47.3686 45.6744 47.5467 47.2197 47.9113 48.446C48.2842 49.6723 48.8062 50.5879 49.4774 51.1928C50.1485 51.7894 50.9233 52.0877 51.8016 52.0877Z" fill="#543CDA"/>
</svg>
