<svg width="87" height="87" viewBox="0 0 87 87" fill="none" xmlns="http://www.w3.org/2000/svg">
<rect x="0.5" y="0.5" width="86" height="86" rx="43" fill="white"/>
<path d="M34.9041 57.1214C32.6835 57.1214 30.7694 56.5953 29.1619 55.543C27.5545 54.4824 26.3157 52.9619 25.4457 50.9815C24.5756 48.9929 24.1448 46.6024 24.1531 43.81C24.1613 41.0176 24.5964 38.6478 25.4581 36.7006C26.3281 34.7451 27.5627 33.2578 29.1619 32.2386C30.7694 31.2112 32.6835 30.6974 34.9041 30.6974C37.1248 30.6974 39.0388 31.2112 40.6463 32.2386C42.2621 33.2578 43.505 34.7451 44.375 36.7006C45.245 38.6561 45.6759 41.0259 45.6676 43.81C45.6676 46.6107 45.2326 49.0053 44.3626 50.994C43.4925 52.9826 42.2538 54.5031 40.6463 55.5554C39.0471 56.5994 37.133 57.1214 34.9041 57.1214ZM34.9041 52.0877C36.2299 52.0877 37.3029 51.4124 38.1232 50.0618C38.9435 48.7029 39.3496 46.619 39.3413 43.81C39.3413 41.9705 39.1548 40.4542 38.782 39.261C38.4091 38.0595 37.8912 37.1647 37.2283 36.5763C36.5655 35.988 35.7907 35.6939 34.9041 35.6939C33.5866 35.6939 32.5219 36.3609 31.7099 37.695C30.8978 39.0207 30.4877 41.0591 30.4794 43.81C30.4711 45.6744 30.6493 47.2197 31.0138 48.446C31.3867 49.6723 31.9087 50.5879 32.5799 51.1928C33.2511 51.7894 34.0258 52.0877 34.9041 52.0877ZM60.4615 31.0455V56.5H54.3216V36.7876H54.1724L48.4799 40.2678V34.9482L54.7566 31.0455H60.4615Z" fill="#543CDA"/>
</svg>
