<svg width="87" height="87" viewBox="0 0 87 87" fill="none" xmlns="http://www.w3.org/2000/svg">
<rect x="0.5" y="0.5" width="86" height="86" rx="43" fill="white"/>
<path d="M32.4041 57.1214C30.1835 57.1214 28.2694 56.5953 26.6619 55.543C25.0545 54.4824 23.8157 52.9619 22.9457 50.9815C22.0756 48.9929 21.6448 46.6024 21.6531 43.81C21.6613 41.0176 22.0964 38.6478 22.9581 36.7006C23.8281 34.7451 25.0627 33.2578 26.6619 32.2386C28.2694 31.2112 30.1835 30.6974 32.4041 30.6974C34.6248 30.6974 36.5388 31.2112 38.1463 32.2386C39.7621 33.2578 41.005 34.7451 41.875 36.7006C42.745 38.6561 43.1759 41.0259 43.1676 43.81C43.1676 46.6107 42.7326 49.0053 41.8626 50.994C40.9925 52.9826 39.7538 54.5031 38.1463 55.5554C36.5471 56.5994 34.633 57.1214 32.4041 57.1214ZM32.4041 52.0877C33.7299 52.0877 34.8029 51.4124 35.6232 50.0618C36.4435 48.7029 36.8496 46.619 36.8413 43.81C36.8413 41.9705 36.6548 40.4542 36.282 39.261C35.9091 38.0595 35.3912 37.1647 34.7283 36.5763C34.0655 35.988 33.2907 35.6939 32.4041 35.6939C31.0866 35.6939 30.0219 36.3609 29.2099 37.695C28.3978 39.0207 27.9877 41.0591 27.9794 43.81C27.9711 45.6744 28.1493 47.2197 28.5138 48.446C28.8867 49.6723 29.4087 50.5879 30.0799 51.1928C30.7511 51.7894 31.5258 52.0877 32.4041 52.0877ZM46.1912 56.5V52.0753L55.4757 43.9467C56.1717 43.317 56.7641 42.7411 57.253 42.2191C57.7419 41.6888 58.1148 41.1585 58.3716 40.6282C58.6285 40.0896 58.7569 39.5054 58.7569 38.8757C58.7569 38.1714 58.6036 37.5707 58.2971 37.0735C57.9905 36.5681 57.5679 36.1786 57.0293 35.9052C56.4907 35.6317 55.8734 35.495 55.1774 35.495C54.4731 35.495 53.8558 35.64 53.3255 35.93C52.7952 36.2118 52.3809 36.6219 52.0826 37.1605C51.7926 37.6991 51.6475 38.3537 51.6475 39.1243H45.8184C45.8184 37.3925 46.2078 35.8969 46.9867 34.6374C47.7656 33.378 48.8593 32.4085 50.2679 31.729C51.6848 31.0413 53.3296 30.6974 55.2022 30.6974C57.1329 30.6974 58.8108 31.0206 60.236 31.6669C61.6612 32.3132 62.7632 33.2164 63.5421 34.3764C64.3293 35.5282 64.7228 36.8664 64.7228 38.391C64.7228 39.3604 64.5281 40.3216 64.1387 41.2745C63.7492 42.2274 63.0491 43.2797 62.0382 44.4315C61.0356 45.5832 59.6104 46.9628 57.7626 48.5703L54.7175 51.3793V51.5408H65.0336V56.5H46.1912Z" fill="#543CDA"/>
</svg>
