<svg width="87" height="86" viewBox="0 0 87 86" fill="none" xmlns="http://www.w3.org/2000/svg">
<rect x="0.5" width="86" height="86" rx="43" fill="white"/>
<path d="M31.9041 56.6214C29.6835 56.6214 27.7694 56.0953 26.1619 55.043C24.5545 53.9824 23.3157 52.4619 22.4457 50.4815C21.5756 48.4929 21.1448 46.1024 21.1531 43.31C21.1613 40.5176 21.5964 38.1478 22.4581 36.2006C23.3281 34.2451 24.5627 32.7578 26.1619 31.7386C27.7694 30.7112 29.6835 30.1974 31.9041 30.1974C34.1248 30.1974 36.0388 30.7112 37.6463 31.7386C39.2621 32.7578 40.505 34.2451 41.375 36.2006C42.245 38.1561 42.6759 40.5259 42.6676 43.31C42.6676 46.1107 42.2326 48.5053 41.3626 50.494C40.4925 52.4826 39.2538 54.0031 37.6463 55.0554C36.0471 56.0994 34.133 56.6214 31.9041 56.6214ZM31.9041 51.5877C33.2299 51.5877 34.3029 50.9124 35.1232 49.5618C35.9435 48.2029 36.3496 46.119 36.3413 43.31C36.3413 41.4705 36.1548 39.9542 35.782 38.761C35.4091 37.5595 34.8912 36.6647 34.2283 36.0763C33.5655 35.488 32.7907 35.1939 31.9041 35.1939C30.5866 35.1939 29.5219 35.8609 28.7099 37.195C27.8978 38.5207 27.4877 40.5591 27.4794 43.31C27.4711 45.1744 27.6493 46.7197 28.0138 47.946C28.3867 49.1723 28.9087 50.0879 29.5799 50.6928C30.2511 51.2894 31.0258 51.5877 31.9041 51.5877ZM55.3734 56.348C53.4345 56.348 51.7151 56.0166 50.2154 55.3537C48.7239 54.6825 47.5473 53.7586 46.6855 52.582C45.8238 51.4054 45.3846 50.0507 45.3681 48.5178H51.5577C51.5826 49.0729 51.7607 49.5659 52.0922 49.9968C52.4236 50.4194 52.8752 50.7508 53.4469 50.9911C54.0186 51.2314 54.6691 51.3516 55.3983 51.3516C56.1274 51.3516 56.7696 51.2231 57.3248 50.9663C57.8882 50.7011 58.3274 50.3407 58.6422 49.8849C58.9571 49.4209 59.1104 48.8906 59.1021 48.294C59.1104 47.6974 58.9405 47.1671 58.5925 46.7031C58.2445 46.2391 57.7515 45.8787 57.1135 45.6218C56.4837 45.3649 55.738 45.2365 54.8762 45.2365H52.4029V40.8615H54.8762C55.6303 40.8615 56.2931 40.7372 56.8649 40.4886C57.4449 40.2401 57.8965 39.892 58.2196 39.4446C58.5428 38.9889 58.7002 38.4669 58.6919 37.8786C58.7002 37.3068 58.5635 36.8055 58.2818 36.3746C58.0083 35.9355 57.623 35.5958 57.1259 35.3555C56.637 35.1152 56.0694 34.995 55.4231 34.995C54.7437 34.995 54.1264 35.1152 53.5712 35.3555C53.0243 35.5958 52.5893 35.9355 52.2662 36.3746C51.943 36.8138 51.7731 37.3234 51.7566 37.9034H45.8777C45.8942 36.3871 46.3168 35.053 47.1454 33.9013C47.974 32.7412 49.1009 31.8339 50.5261 31.1793C51.9596 30.5247 53.5919 30.1974 55.4231 30.1974C57.246 30.1974 58.8494 30.5165 60.2331 31.1545C61.6169 31.7925 62.6941 32.6625 63.4647 33.7646C64.2353 34.8583 64.6206 36.0971 64.6206 37.4808C64.6288 38.9143 64.1607 40.0951 63.2161 41.0231C62.2798 41.9511 61.0742 42.5228 59.5993 42.7383V42.9371C61.5713 43.1692 63.0587 43.8072 64.0613 44.8512C65.0721 45.8952 65.5734 47.2003 65.5652 48.7663C65.5652 50.2412 65.1301 51.5504 64.2601 52.6939C63.3984 53.8291 62.1969 54.724 60.6557 55.3786C59.1228 56.0249 57.362 56.348 55.3734 56.348Z" fill="#543CDA"/>
</svg>
