<svg width="87" height="87" viewBox="0 0 87 87" fill="none" xmlns="http://www.w3.org/2000/svg">
<rect x="0.5" y="0.5" width="86" height="86" rx="43" fill="white"/>
<path d="M31.4041 57.1214C29.1835 57.1214 27.2694 56.5953 25.6619 55.543C24.0545 54.4824 22.8157 52.9619 21.9457 50.9815C21.0756 48.9929 20.6448 46.6024 20.6531 43.81C20.6613 41.0176 21.0964 38.6478 21.9581 36.7006C22.8281 34.7451 24.0627 33.2578 25.6619 32.2386C27.2694 31.2112 29.1835 30.6974 31.4041 30.6974C33.6248 30.6974 35.5388 31.2112 37.1463 32.2386C38.7621 33.2578 40.005 34.7451 40.875 36.7006C41.745 38.6561 42.1759 41.0259 42.1676 43.81C42.1676 46.6107 41.7326 49.0053 40.8626 50.994C39.9925 52.9826 38.7538 54.5031 37.1463 55.5554C35.5471 56.5994 33.633 57.1214 31.4041 57.1214ZM31.4041 52.0877C32.7299 52.0877 33.8029 51.4124 34.6232 50.0618C35.4435 48.7029 35.8496 46.619 35.8413 43.81C35.8413 41.9705 35.6548 40.4542 35.282 39.261C34.9091 38.0595 34.3912 37.1647 33.7283 36.5763C33.0655 35.988 32.2907 35.6939 31.4041 35.6939C30.0866 35.6939 29.0219 36.3609 28.2099 37.695C27.3978 39.0207 26.9877 41.0591 26.9794 43.81C26.9711 45.6744 27.1493 47.2197 27.5138 48.446C27.8867 49.6723 28.4087 50.5879 29.0799 51.1928C29.7511 51.7894 30.5258 52.0877 31.4041 52.0877ZM44.8805 52.2741V47.4766L55.3084 31.0455H59.5716V37.5582H57.0982L50.9956 47.228V47.4268H66.0968V52.2741H44.8805ZM57.1728 56.5V50.8075L57.2971 48.707V31.0455H63.0517V56.5H57.1728Z" fill="#543CDA"/>
</svg>
