<svg width="87" height="87" viewBox="0 0 87 87" fill="none" xmlns="http://www.w3.org/2000/svg">
<rect x="0.5" y="0.5" width="86" height="86" rx="43" fill="white"/>
<path d="M31.9041 57.1214C29.6835 57.1214 27.7694 56.5953 26.1619 55.543C24.5545 54.4824 23.3157 52.9619 22.4457 50.9815C21.5756 48.9929 21.1448 46.6024 21.1531 43.81C21.1613 41.0176 21.5964 38.6478 22.4581 36.7006C23.3281 34.7451 24.5627 33.2578 26.1619 32.2386C27.7694 31.2112 29.6835 30.6974 31.9041 30.6974C34.1248 30.6974 36.0388 31.2112 37.6463 32.2386C39.2621 33.2578 40.505 34.7451 41.375 36.7006C42.245 38.6561 42.6759 41.0259 42.6676 43.81C42.6676 46.6107 42.2326 49.0053 41.3626 50.994C40.4925 52.9826 39.2538 54.5031 37.6463 55.5554C36.0471 56.5994 34.133 57.1214 31.9041 57.1214ZM31.9041 52.0877C33.2299 52.0877 34.3029 51.4124 35.1232 50.0618C35.9435 48.7029 36.3496 46.619 36.3413 43.81C36.3413 41.9705 36.1548 40.4542 35.782 39.261C35.4091 38.0595 34.8912 37.1647 34.2283 36.5763C33.5655 35.988 32.7907 35.6939 31.9041 35.6939C30.5866 35.6939 29.5219 36.3609 28.7099 37.695C27.8978 39.0207 27.4877 41.0591 27.4794 43.81C27.4711 45.6744 27.6493 47.2197 28.0138 48.446C28.3867 49.6723 28.9087 50.5879 29.5799 51.1928C30.2511 51.7894 31.0258 52.0877 31.9041 52.0877ZM55.4355 56.848C53.5795 56.848 51.9306 56.5124 50.4888 55.8413C49.0471 55.1701 47.9077 54.2462 47.0708 53.0696C46.2422 51.893 45.8114 50.5424 45.7782 49.0178H51.7441C51.7939 49.9541 52.175 50.7081 52.8876 51.2798C53.6002 51.8433 54.4495 52.125 55.4355 52.125C56.2061 52.125 56.8897 51.9551 57.4863 51.6154C58.0829 51.2757 58.5511 50.7992 58.8908 50.1861C59.2305 49.5646 59.3962 48.852 59.388 48.0483C59.3962 47.228 59.2264 46.5112 58.8784 45.8981C58.5386 45.2849 58.0663 44.8085 57.4615 44.4688C56.8649 44.1207 56.1771 43.9467 55.3983 43.9467C54.6608 43.9384 53.9606 44.1 53.2978 44.4315C52.6432 44.7629 52.146 45.2145 51.8063 45.7862L46.3748 44.767L47.481 31.0455H63.8127V36.0046H52.5396L51.9554 42.0078H52.1046C52.5272 41.3035 53.2066 40.7235 54.1429 40.2678C55.0875 39.8037 56.1606 39.5717 57.362 39.5717C58.8867 39.5717 60.2456 39.928 61.4387 40.6406C62.6402 41.3449 63.5848 42.3227 64.2726 43.5739C64.9686 44.825 65.3166 46.2585 65.3166 47.8743C65.3166 49.6226 64.9023 51.1721 64.0737 52.5227C63.2534 53.8733 62.1016 54.9339 60.6184 55.7045C59.1435 56.4669 57.4159 56.848 55.4355 56.848Z" fill="#543CDA"/>
</svg>
