<svg width="87" height="87" viewBox="0 0 87 87" fill="none" xmlns="http://www.w3.org/2000/svg">
<rect x="0.5" y="0.5" width="86" height="86" rx="43" fill="white"/>
<path d="M31.9041 57.1214C29.6835 57.1214 27.7694 56.5953 26.1619 55.543C24.5545 54.4824 23.3157 52.9619 22.4457 50.9815C21.5756 48.9929 21.1448 46.6024 21.1531 43.81C21.1613 41.0176 21.5964 38.6478 22.4581 36.7006C23.3281 34.7451 24.5627 33.2578 26.1619 32.2386C27.7694 31.2112 29.6835 30.6974 31.9041 30.6974C34.1248 30.6974 36.0388 31.2112 37.6463 32.2386C39.2621 33.2578 40.505 34.7451 41.375 36.7006C42.245 38.6561 42.6759 41.0259 42.6676 43.81C42.6676 46.6107 42.2326 49.0053 41.3626 50.994C40.4925 52.9826 39.2538 54.5031 37.6463 55.5554C36.0471 56.5994 34.133 57.1214 31.9041 57.1214ZM31.9041 52.0877C33.2299 52.0877 34.3029 51.4124 35.1232 50.0618C35.9435 48.7029 36.3496 46.619 36.3413 43.81C36.3413 41.9705 36.1548 40.4542 35.782 39.261C35.4091 38.0595 34.8912 37.1647 34.2283 36.5763C33.5655 35.988 32.7907 35.6939 31.9041 35.6939C30.5866 35.6939 29.5219 36.3609 28.7099 37.695C27.8978 39.0207 27.4877 41.0591 27.4794 43.81C27.4711 45.6744 27.6493 47.2197 28.0138 48.446C28.3867 49.6723 28.9087 50.5879 29.5799 51.1928C30.2511 51.7894 31.0258 52.0877 31.9041 52.0877ZM55.8954 56.848C54.5034 56.848 53.1693 56.6243 51.8933 56.1768C50.6172 55.7211 49.4821 55.0002 48.4877 54.0142C47.4934 53.0199 46.7104 51.719 46.1387 50.1115C45.5669 48.4957 45.2852 46.5278 45.2935 44.2077C45.3018 42.1114 45.5587 40.2305 46.0641 38.565C46.5695 36.8912 47.2904 35.4702 48.2267 34.3018C49.1713 33.1335 50.2982 32.2428 51.6074 31.6296C52.9249 31.0082 54.3957 30.6974 56.0197 30.6974C57.8012 30.6974 59.3714 31.0455 60.7303 31.7415C62.0975 32.4292 63.1912 33.3572 64.0115 34.5256C64.8319 35.6856 65.3166 36.9782 65.4657 38.4034H59.4128C59.2305 37.5997 58.8287 36.9906 58.2072 36.5763C57.594 36.1538 56.8649 35.9425 56.0197 35.9425C54.4619 35.9425 53.2978 36.6178 52.5272 37.9684C51.7649 39.319 51.3754 41.1254 51.3588 43.3874H51.5204C51.8684 42.6251 52.3697 41.9705 53.0243 41.4237C53.6789 40.8768 54.4288 40.4583 55.274 40.1683C56.1274 39.87 57.0306 39.7209 57.9835 39.7209C59.5081 39.7209 60.8546 40.073 62.0229 40.7773C63.1912 41.4817 64.1068 42.447 64.7697 43.6733C65.4326 44.8913 65.7599 46.2875 65.7516 47.8619C65.7599 49.6351 65.3456 51.2011 64.5087 52.56C63.6718 53.9106 62.5118 54.9629 61.0286 55.717C59.5537 56.471 57.8426 56.848 55.8954 56.848ZM55.8581 52.125C56.6122 52.125 57.2875 51.9469 57.8841 51.5906C58.4806 51.2343 58.9488 50.7495 59.2885 50.1364C59.6283 49.5232 59.794 48.8313 59.7857 48.0607C59.794 47.2818 59.6283 46.59 59.2885 45.9851C58.9571 45.3802 58.4931 44.8996 57.8965 44.5433C57.3082 44.187 56.6329 44.0089 55.8706 44.0089C55.3154 44.0089 54.7975 44.1125 54.3169 44.3196C53.8364 44.5268 53.4179 44.8168 53.0616 45.1896C52.7136 45.5542 52.4402 45.9851 52.2413 46.4822C52.0424 46.9711 51.9389 47.5014 51.9306 48.0732C51.9389 48.8272 52.1129 49.5108 52.4526 50.1239C52.7923 50.7371 53.2563 51.226 53.8446 51.5906C54.4329 51.9469 55.1041 52.125 55.8581 52.125Z" fill="#543CDA"/>
</svg>
