<svg width="87" height="86" viewBox="0 0 87 86" fill="none" xmlns="http://www.w3.org/2000/svg">
<rect x="0.5" width="86" height="86" rx="43" fill="white"/>
<path d="M33.4041 56.6214C31.1835 56.6214 29.2694 56.0953 27.6619 55.043C26.0545 53.9824 24.8157 52.4619 23.9457 50.4815C23.0756 48.4929 22.6448 46.1024 22.6531 43.31C22.6613 40.5176 23.0964 38.1478 23.9581 36.2006C24.8281 34.2451 26.0627 32.7578 27.6619 31.7386C29.2694 30.7112 31.1835 30.1974 33.4041 30.1974C35.6248 30.1974 37.5388 30.7112 39.1463 31.7386C40.7621 32.7578 42.005 34.2451 42.875 36.2006C43.745 38.1561 44.1759 40.5259 44.1676 43.31C44.1676 46.1107 43.7326 48.5053 42.8626 50.494C41.9925 52.4826 40.7538 54.0031 39.1463 55.0554C37.5471 56.0994 35.633 56.6214 33.4041 56.6214ZM33.4041 51.5877C34.7299 51.5877 35.8029 50.9124 36.6232 49.5618C37.4435 48.2029 37.8496 46.119 37.8413 43.31C37.8413 41.4705 37.6548 39.9542 37.282 38.761C36.9091 37.5595 36.3912 36.6647 35.7283 36.0763C35.0655 35.488 34.2907 35.1939 33.4041 35.1939C32.0866 35.1939 31.0219 35.8609 30.2099 37.195C29.3978 38.5207 28.9877 40.5591 28.9794 43.31C28.9711 45.1744 29.1493 46.7197 29.5138 47.946C29.8867 49.1723 30.4087 50.0879 31.0799 50.6928C31.7511 51.2894 32.5258 51.5877 33.4041 51.5877ZM47.589 56L57.8553 35.6662V35.5046H45.8489V30.5455H64.2189V35.5419L53.9153 56H47.589Z" fill="#543CDA"/>
</svg>
