<svg width="87" height="87" viewBox="0 0 87 87" fill="none" xmlns="http://www.w3.org/2000/svg">
<rect x="0.5" y="0.5" width="86" height="86" rx="43" fill="white"/>
<path d="M31.9041 57.1214C29.6835 57.1214 27.7694 56.5953 26.1619 55.543C24.5545 54.4824 23.3157 52.9619 22.4457 50.9815C21.5756 48.9929 21.1448 46.6024 21.1531 43.81C21.1613 41.0176 21.5964 38.6478 22.4581 36.7006C23.3281 34.7451 24.5627 33.2578 26.1619 32.2386C27.7694 31.2112 29.6835 30.6974 31.9041 30.6974C34.1248 30.6974 36.0388 31.2112 37.6463 32.2386C39.2621 33.2578 40.505 34.7451 41.375 36.7006C42.245 38.6561 42.6759 41.0259 42.6676 43.81C42.6676 46.6107 42.2326 49.0053 41.3626 50.994C40.4925 52.9826 39.2538 54.5031 37.6463 55.5554C36.0471 56.5994 34.133 57.1214 31.9041 57.1214ZM31.9041 52.0877C33.2299 52.0877 34.3029 51.4124 35.1232 50.0618C35.9435 48.7029 36.3496 46.619 36.3413 43.81C36.3413 41.9705 36.1548 40.4542 35.782 39.261C35.4091 38.0595 34.8912 37.1647 34.2283 36.5763C33.5655 35.988 32.7907 35.6939 31.9041 35.6939C30.5866 35.6939 29.5219 36.3609 28.7099 37.695C27.8978 39.0207 27.4877 41.0591 27.4794 43.81C27.4711 45.6744 27.6493 47.2197 28.0138 48.446C28.3867 49.6723 28.9087 50.5879 29.5799 51.1928C30.2511 51.7894 31.0258 52.0877 31.9041 52.0877ZM55.6344 56.848C53.6541 56.848 51.885 56.5331 50.3272 55.9034C48.7778 55.2654 47.5597 54.4036 46.6731 53.3182C45.7948 52.2244 45.3556 50.9898 45.3556 49.6143C45.3556 48.562 45.6084 47.5967 46.1138 46.7184C46.6193 45.8401 47.3029 45.1109 48.1646 44.5309C49.0346 43.9426 50.0041 43.5656 51.073 43.3999V43.201C49.6726 42.9441 48.525 42.2937 47.6301 41.2496C46.7435 40.2056 46.3002 38.9834 46.3002 37.5831C46.3002 36.2573 46.7021 35.0766 47.5059 34.0408C48.3179 33.0051 49.4241 32.1889 50.8244 31.5923C52.233 30.9957 53.8364 30.6974 55.6344 30.6974C57.4325 30.6974 59.0317 30.9957 60.432 31.5923C61.8406 32.1889 62.9468 33.0051 63.7505 34.0408C64.5626 35.0766 64.9686 36.2573 64.9686 37.5831C64.9686 38.9917 64.517 40.218 63.6138 41.2621C62.7189 42.2978 61.5796 42.9441 60.1958 43.201V43.3999C61.2565 43.5656 62.2176 43.9426 63.0794 44.5309C63.9494 45.1109 64.6371 45.8401 65.1426 46.7184C65.6563 47.5967 65.9132 48.562 65.9132 49.6143C65.9132 50.9898 65.4699 52.2244 64.5833 53.3182C63.6967 54.4036 62.4786 55.2654 60.9292 55.9034C59.388 56.5331 57.623 56.848 55.6344 56.848ZM55.6344 52.4854C56.3884 52.4854 57.0513 52.3446 57.623 52.0629C58.1948 51.7728 58.6422 51.371 58.9654 50.8572C59.2968 50.3435 59.4625 49.7635 59.4625 49.1172C59.4625 48.4543 59.2968 47.866 58.9654 47.3523C58.6339 46.8385 58.1782 46.4367 57.5982 46.1467C57.0265 45.8484 56.3719 45.6992 55.6344 45.6992C54.9052 45.6992 54.2507 45.8484 53.6706 46.1467C53.0906 46.4367 52.6349 46.8385 52.3034 47.3523C51.972 47.866 51.8063 48.4543 51.8063 49.1172C51.8063 49.7635 51.9679 50.3435 52.291 50.8572C52.6225 51.3627 53.074 51.7604 53.6458 52.0504C54.2258 52.3404 54.8887 52.4854 55.6344 52.4854ZM55.6344 41.3615C56.2807 41.3615 56.8525 41.2289 57.3496 40.9638C57.8551 40.6986 58.2486 40.3299 58.5304 39.8576C58.8204 39.3853 58.9654 38.8509 58.9654 38.2543C58.9654 37.6577 58.8204 37.1315 58.5304 36.6758C58.2486 36.2201 57.8592 35.8638 57.362 35.6069C56.8649 35.3417 56.289 35.2092 55.6344 35.2092C54.9881 35.2092 54.4122 35.3417 53.9068 35.6069C53.4013 35.8638 53.0078 36.2201 52.726 36.6758C52.4443 37.1315 52.3034 37.6577 52.3034 38.2543C52.3034 38.8509 52.4443 39.3853 52.726 39.8576C53.016 40.3216 53.4138 40.6903 53.9192 40.9638C54.4247 41.2289 54.9964 41.3615 55.6344 41.3615Z" fill="#543CDA"/>
</svg>
