<svg width="87" height="86" viewBox="0 0 87 86" fill="none" xmlns="http://www.w3.org/2000/svg">
<rect x="0.5" width="86" height="86" rx="43" fill="white"/>
<path d="M31.9041 56.6214C29.6835 56.6214 27.7694 56.0953 26.1619 55.043C24.5545 53.9824 23.3157 52.4619 22.4457 50.4815C21.5756 48.4929 21.1448 46.1024 21.1531 43.31C21.1613 40.5176 21.5964 38.1478 22.4581 36.2006C23.3281 34.2451 24.5627 32.7578 26.1619 31.7386C27.7694 30.7112 29.6835 30.1974 31.9041 30.1974C34.1248 30.1974 36.0388 30.7112 37.6463 31.7386C39.2621 32.7578 40.505 34.2451 41.375 36.2006C42.245 38.1561 42.6759 40.5259 42.6676 43.31C42.6676 46.1107 42.2326 48.5053 41.3626 50.494C40.4925 52.4826 39.2538 54.0031 37.6463 55.0554C36.0471 56.0994 34.133 56.6214 31.9041 56.6214ZM31.9041 51.5877C33.2299 51.5877 34.3029 50.9124 35.1232 49.5618C35.9435 48.2029 36.3496 46.119 36.3413 43.31C36.3413 41.4705 36.1548 39.9542 35.782 38.761C35.4091 37.5595 34.8912 36.6647 34.2283 36.0763C33.5655 35.488 32.7907 35.1939 31.9041 35.1939C30.5866 35.1939 29.5219 35.8609 28.7099 37.195C27.8978 38.5207 27.4877 40.5591 27.4794 43.31C27.4711 45.1744 27.6493 46.7197 28.0138 47.946C28.3867 49.1723 28.9087 50.0879 29.5799 50.6928C30.2511 51.2894 31.0258 51.5877 31.9041 51.5877ZM55.274 30.1974C56.666 30.1974 57.9959 30.4253 59.2637 30.881C60.5314 31.3285 61.6625 32.0452 62.6568 33.0312C63.6511 34.009 64.4341 35.2975 65.0059 36.8967C65.5776 38.4959 65.8635 40.4472 65.8635 42.7507C65.8717 44.8719 65.6232 46.7736 65.1177 48.4556C64.6123 50.1294 63.8873 51.5546 62.9426 52.7312C62.0063 53.9078 60.8794 54.8068 59.562 55.4283C58.2445 56.0414 56.7737 56.348 55.1497 56.348C53.3599 56.348 51.7814 56.0041 50.4142 55.3164C49.0553 54.6204 47.9657 53.6841 47.1454 52.5075C46.3334 51.3308 45.8487 50.0134 45.6912 48.555H51.7441C51.9347 49.4002 52.3366 50.0382 52.9498 50.4691C53.5629 50.8917 54.2962 51.103 55.1497 51.103C56.7074 51.103 57.8716 50.4277 58.6422 49.0771C59.4128 47.7264 59.7981 45.8911 59.7981 43.571H59.649C59.2927 44.3333 58.7872 44.9879 58.1326 45.5348C57.4863 46.0817 56.7364 46.5001 55.883 46.7901C55.0295 47.0801 54.1305 47.2251 53.1859 47.2251C51.6613 47.2251 50.3148 46.8771 49.1465 46.1811C47.9864 45.4851 47.075 44.5281 46.4121 43.31C45.7575 42.092 45.4261 40.6999 45.4178 39.1339C45.4095 37.3772 45.8197 35.8278 46.6483 34.4854C47.4769 33.1348 48.6328 32.0825 50.1159 31.3285C51.5991 30.5662 53.3185 30.1892 55.274 30.1974ZM55.3113 34.9205C54.5489 34.9205 53.8695 35.0986 53.2729 35.4549C52.6846 35.8112 52.2206 36.2918 51.8809 36.8967C51.5411 37.5015 51.3754 38.181 51.3837 38.935C51.392 39.689 51.5618 40.3685 51.8933 40.9734C52.233 41.5782 52.6929 42.0588 53.2729 42.4151C53.8612 42.7714 54.5324 42.9496 55.2864 42.9496C55.8498 42.9496 56.3719 42.846 56.8525 42.6388C57.333 42.4317 57.7515 42.1458 58.1078 41.7812C58.4641 41.4084 58.7417 40.9775 58.9405 40.4886C59.1477 39.9998 59.2471 39.4777 59.2388 38.9226C59.2305 38.1851 59.0565 37.514 58.7168 36.9091C58.3771 36.3042 57.9089 35.8236 57.3123 35.4673C56.724 35.1027 56.057 34.9205 55.3113 34.9205Z" fill="#543CDA"/>
</svg>
