<svg width="60" height="60" viewBox="0 0 60 60" fill="none" xmlns="http://www.w3.org/2000/svg">
<rect width="60" height="60" rx="30" fill="#543CDA" fill-opacity="0.2"/>
<path d="M21.147 43V39.5739L30.2365 30.6634C31.1058 29.7855 31.8303 29.0057 32.4098 28.3239C32.9893 27.642 33.424 26.9815 33.7138 26.3423C34.0036 25.7031 34.1484 25.0213 34.1484 24.2969C34.1484 23.4702 33.9609 22.7628 33.5859 22.1747C33.2109 21.5781 32.6953 21.1179 32.0391 20.794C31.3828 20.4702 30.6371 20.3082 29.8018 20.3082C28.9411 20.3082 28.1868 20.4872 27.5391 20.8452C26.8913 21.1946 26.3885 21.6932 26.0305 22.3409C25.6811 22.9886 25.5064 23.7599 25.5064 24.6548H20.9936C20.9936 22.9929 21.3729 21.5483 22.1314 20.321C22.8899 19.0937 23.9339 18.1435 25.2635 17.4702C26.6016 16.7969 28.1357 16.4602 29.8658 16.4602C31.6214 16.4602 33.1641 16.7884 34.4936 17.4446C35.8232 18.1009 36.8544 19 37.5874 20.142C38.3288 21.2841 38.6996 22.5881 38.6996 24.054C38.6996 25.0341 38.5121 25.9972 38.1371 26.9432C37.7621 27.8892 37.1016 28.9375 36.1555 30.0881C35.218 31.2386 33.9013 32.6321 32.2053 34.2685L27.6925 38.858V39.0369H39.0959V43H21.147Z" fill="#543CDA"/>
</svg>
