<svg width="60" height="60" viewBox="0 0 60 60" fill="none" xmlns="http://www.w3.org/2000/svg">
<rect width="60" height="60" rx="30" fill="#0059F1" fill-opacity="0.2"/>
<path d="M30.0739 42.3182C28.4678 42.3182 27.036 42.0227 25.7784 41.4318C24.5284 40.8409 23.536 40.0265 22.8011 38.9886C22.0663 37.9508 21.6837 36.7614 21.6534 35.4205H26.4261C26.4792 36.322 26.858 37.053 27.5625 37.6136C28.267 38.1742 29.1042 38.4545 30.0739 38.4545C30.8466 38.4545 31.5284 38.2841 32.1193 37.9432C32.7178 37.5947 33.1837 37.1136 33.517 36.5C33.858 35.8788 34.0284 35.1667 34.0284 34.3636C34.0284 33.5455 33.8542 32.8258 33.5057 32.2045C33.1648 31.5833 32.6913 31.0985 32.0852 30.75C31.4792 30.4015 30.786 30.2235 30.0057 30.2159C29.3239 30.2159 28.661 30.3561 28.017 30.6364C27.3807 30.9167 26.8845 31.2992 26.5284 31.7841L22.1534 31L23.2557 18.7273H37.483V22.75H27.3125L26.7102 28.5795H26.8466C27.2557 28.0038 27.8731 27.5265 28.6989 27.1477C29.5246 26.7689 30.4489 26.5795 31.4716 26.5795C32.8731 26.5795 34.1231 26.9091 35.2216 27.5682C36.3201 28.2273 37.1875 29.1326 37.8239 30.2841C38.4602 31.428 38.7746 32.7462 38.767 34.2386C38.7746 35.8068 38.411 37.2008 37.6761 38.4205C36.9489 39.6326 35.9299 40.5871 34.6193 41.2841C33.3163 41.9735 31.8011 42.3182 30.0739 42.3182Z" fill="black"/>
</svg>
