<svg width="60" height="60" viewBox="0 0 60 60" fill="none" xmlns="http://www.w3.org/2000/svg">
<rect width="60" height="60" rx="30" fill="#0059F1" fill-opacity="0.2"/>
<path d="M21.8082 42V38.4545L30.0923 30.7841C30.7969 30.1023 31.3878 29.4886 31.8651 28.9432C32.3499 28.3977 32.7173 27.8636 32.9673 27.3409C33.2173 26.8106 33.3423 26.2386 33.3423 25.625C33.3423 24.9432 33.187 24.3561 32.8764 23.8636C32.5658 23.3636 32.1416 22.9811 31.6037 22.7159C31.0658 22.4432 30.456 22.3068 29.7741 22.3068C29.062 22.3068 28.4408 22.4508 27.9105 22.7386C27.3802 23.0265 26.9711 23.4394 26.6832 23.9773C26.3954 24.5152 26.2514 25.1553 26.2514 25.8977H21.581C21.581 24.375 21.9257 23.053 22.6151 21.9318C23.3045 20.8106 24.2704 19.9432 25.5128 19.3295C26.7552 18.7159 28.187 18.4091 29.8082 18.4091C31.4749 18.4091 32.9257 18.7045 34.1605 19.2955C35.4029 19.8788 36.3688 20.6894 37.0582 21.7273C37.7476 22.7652 38.0923 23.9545 38.0923 25.2955C38.0923 26.1742 37.9181 27.0417 37.5696 27.8977C37.2287 28.7538 36.6188 29.7045 35.7401 30.75C34.8613 31.7879 33.6226 33.0341 32.0241 34.4886L28.6264 37.8182V37.9773H38.3991V42H21.8082Z" fill="black"/>
</svg>
