<svg width="60" height="60" viewBox="0 0 60 60" fill="none" xmlns="http://www.w3.org/2000/svg">
<rect width="60" height="60" rx="30" fill="#0059F1" fill-opacity="0.2"/>
<path d="M29.9418 42.3182C28.2448 42.3182 26.7334 42.0265 25.4077 41.4432C24.0895 40.8523 23.0478 40.0417 22.2827 39.0114C21.5251 37.9735 21.1349 36.7765 21.1122 35.4205H26.0668C26.0971 35.9886 26.2827 36.4886 26.6236 36.9205C26.9721 37.3447 27.4342 37.6742 28.0099 37.9091C28.5857 38.1439 29.2334 38.2614 29.9531 38.2614C30.7031 38.2614 31.366 38.1288 31.9418 37.8636C32.5175 37.5985 32.9683 37.2311 33.294 36.7614C33.6198 36.2917 33.7827 35.75 33.7827 35.1364C33.7827 34.5152 33.6084 33.9659 33.2599 33.4886C32.919 33.0038 32.4266 32.625 31.7827 32.3523C31.1463 32.0795 30.3887 31.9432 29.5099 31.9432H27.3395V28.3295H29.5099C30.2524 28.3295 30.9077 28.2008 31.4759 27.9432C32.0516 27.6856 32.4986 27.3295 32.8168 26.875C33.1349 26.4129 33.294 25.875 33.294 25.2614C33.294 24.678 33.1539 24.1667 32.8736 23.7273C32.6009 23.2803 32.2145 22.9318 31.7145 22.6818C31.2221 22.4318 30.6463 22.3068 29.9872 22.3068C29.3205 22.3068 28.7107 22.428 28.1577 22.6705C27.6046 22.9053 27.1615 23.2424 26.8281 23.6818C26.4948 24.1212 26.3168 24.6364 26.294 25.2273H21.5781C21.6009 23.8864 21.9834 22.7045 22.7259 21.6818C23.4683 20.6591 24.4683 19.8598 25.7259 19.2841C26.991 18.7008 28.419 18.4091 30.0099 18.4091C31.616 18.4091 33.0213 18.7008 34.2259 19.2841C35.4304 19.8674 36.366 20.6553 37.0327 21.6477C37.7069 22.6326 38.0402 23.7386 38.0327 24.9659C38.0402 26.2689 37.6349 27.3561 36.8168 28.2273C36.0062 29.0985 34.9493 29.6515 33.6463 29.8864V30.0682C35.3584 30.2879 36.6615 30.8826 37.5554 31.8523C38.4569 32.8144 38.9039 34.0189 38.8963 35.4659C38.9039 36.7917 38.5213 37.9697 37.7486 39C36.9834 40.0303 35.9266 40.8409 34.5781 41.4318C33.2296 42.0227 31.6842 42.3182 29.9418 42.3182Z" fill="black"/>
</svg>
