<svg width="60" height="61" viewBox="0 0 60 61" fill="none" xmlns="http://www.w3.org/2000/svg">
<rect y="0.5" width="60" height="60" rx="30" fill="#543CDA" fill-opacity="0.2"/>
<path d="M29.9984 43.858C28.1575 43.858 26.5211 43.5426 25.0893 42.9119C23.666 42.2812 22.541 41.4034 21.7143 40.2784C20.8876 39.1534 20.4487 37.8537 20.3975 36.3793H25.2044C25.247 37.0866 25.4814 37.7045 25.9075 38.233C26.3336 38.7528 26.9004 39.1577 27.6078 39.4474C28.3152 39.7372 29.1078 39.8821 29.9856 39.8821C30.9231 39.8821 31.7541 39.7202 32.4785 39.3963C33.2029 39.0639 33.7697 38.6037 34.1788 38.0156C34.5879 37.4276 34.7882 36.75 34.7797 35.983C34.7882 35.1903 34.5836 34.4915 34.166 33.8864C33.7484 33.2812 33.1433 32.8082 32.3507 32.4673C31.5666 32.1264 30.6206 31.956 29.5126 31.956H27.1987V28.2997H29.5126C30.4245 28.2997 31.2214 28.142 31.9032 27.8267C32.5936 27.5114 33.1348 27.0682 33.5268 26.4972C33.9189 25.9176 34.1106 25.2486 34.1021 24.4901C34.1106 23.7486 33.9444 23.1051 33.6035 22.5597C33.2711 22.0057 32.7981 21.5753 32.1845 21.2685C31.5794 20.9616 30.8677 20.8082 30.0495 20.8082C29.2484 20.8082 28.5069 20.9531 27.8251 21.2429C27.1433 21.5327 26.5936 21.946 26.176 22.483C25.7583 23.0114 25.5368 23.642 25.5112 24.375H20.9473C20.9814 22.9091 21.4032 21.6222 22.2129 20.5142C23.0311 19.3977 24.122 18.5284 25.4856 17.9062C26.8493 17.2756 28.3791 16.9602 30.0751 16.9602C31.8223 16.9602 33.3393 17.2884 34.6262 17.9446C35.9217 18.5923 36.9231 19.4659 37.6305 20.5653C38.3379 21.6648 38.6916 22.8793 38.6916 24.2088C38.7001 25.6832 38.2654 26.919 37.3876 27.9162C36.5183 28.9134 35.3762 29.5653 33.9615 29.8722V30.0767C35.8024 30.3324 37.2129 31.0142 38.193 32.1222C39.1816 33.2216 39.6717 34.5895 39.6632 36.2259C39.6632 37.6918 39.2456 39.0043 38.4103 40.1634C37.5836 41.3139 36.4416 42.2173 34.9842 42.8736C33.5353 43.5298 31.8734 43.858 29.9984 43.858Z" fill="#543CDA"/>
</svg>
