<svg width="54" height="54" viewBox="0 0 54 54" fill="none" xmlns="http://www.w3.org/2000/svg">
<path fill-rule="evenodd" clip-rule="evenodd" d="M42.6 32.0158C42.6 33.1371 41.69 34.0471 40.5687 34.0471C39.4475 34.0471 38.5375 33.1371 38.5375 32.0158V29.0312H34.9408V32.0158C34.9408 33.1371 34.0308 34.0471 32.9096 34.0471C31.7883 34.0471 30.8783 33.1371 30.8783 32.0158V29.0312H25.1475C24.27 31.9237 21.6077 34.0471 18.4335 34.0471C14.5498 34.0471 11.3892 30.8865 11.3892 27C11.3892 23.1162 14.5498 19.9556 18.4335 19.9556C21.6131 19.9583 24.27 22.0817 25.1475 24.9688H40.5687C41.69 24.9688 42.6 25.8787 42.6 27V32.0158ZM27 0.59375C7.50542 0.59375 0.59375 7.50542 0.59375 27C0.59375 46.4973 7.50542 53.4062 27 53.4062C46.4946 53.4062 53.4062 46.4973 53.4062 27C53.4062 7.50542 46.4946 0.59375 27 0.59375Z" fill="#543CDA"/>
<path fill-rule="evenodd" clip-rule="evenodd" d="M18.4392 24.0176C16.7899 24.0176 15.4492 25.3555 15.4492 27.0022C15.4492 28.6461 16.7899 29.9841 18.4338 29.9841C20.0805 29.9841 21.4211 28.6461 21.4211 27.0022C21.4211 25.3582 20.0832 24.0203 18.4392 24.0176Z" fill="#543CDA"/>
</svg>
