<svg width="32" height="32" viewBox="0 0 32 32" fill="none" xmlns="http://www.w3.org/2000/svg">
<path d="M5.33333 7.99992V21.3333H12V15.9999C12 15.2927 12.281 14.6144 12.781 14.1143C13.2811 13.6142 13.9594 13.3333 14.6667 13.3333H21.3333C22.0406 13.3333 22.7189 13.6142 23.219 14.1143C23.719 14.6144 24 15.2927 24 15.9999V21.3333H26.6667V7.99992H5.33333ZM0 26.6666V23.9999H5.33333C4.62609 23.9999 3.94781 23.719 3.44772 23.2189C2.94762 22.7188 2.66667 22.0405 2.66667 21.3333V7.99992C2.66667 7.29267 2.94762 6.6144 3.44772 6.1143C3.94781 5.6142 4.62609 5.33325 5.33333 5.33325H26.6667C27.3739 5.33325 28.0522 5.6142 28.5523 6.1143C29.0524 6.6144 29.3333 7.29267 29.3333 7.99992V21.3333C29.3333 22.0405 29.0524 22.7188 28.5523 23.2189C28.0522 23.719 27.3739 23.9999 26.6667 23.9999H32V26.6666H24C24 27.3738 23.719 28.0521 23.219 28.5522C22.7189 29.0523 22.0406 29.3333 21.3333 29.3333H14.6667C13.9594 29.3333 13.2811 29.0523 12.781 28.5522C12.281 28.0521 12 27.3738 12 26.6666H0ZM15.3333 26.6666C15.1565 26.6666 14.987 26.7368 14.8619 26.8618C14.7369 26.9869 14.6667 27.1564 14.6667 27.3333C14.6667 27.5101 14.7369 27.6796 14.8619 27.8047C14.987 27.9297 15.1565 27.9999 15.3333 27.9999C15.5101 27.9999 15.6797 27.9297 15.8047 27.8047C15.9298 27.6796 16 27.5101 16 27.3333C16 27.1564 15.9298 26.9869 15.8047 26.8618C15.6797 26.7368 15.5101 26.6666 15.3333 26.6666ZM20.6667 26.6666C20.4899 26.6666 20.3203 26.7368 20.1953 26.8618C20.0702 26.9869 20 27.1564 20 27.3333C20 27.5101 20.0702 27.6796 20.1953 27.8047C20.3203 27.9297 20.4899 27.9999 20.6667 27.9999C20.8435 27.9999 21.013 27.9297 21.1381 27.8047C21.2631 27.6796 21.3333 27.5101 21.3333 27.3333C21.3333 27.1564 21.2631 26.9869 21.1381 26.8618C21.013 26.7368 20.8435 26.6666 20.6667 26.6666ZM17.3333 26.6666V27.9999H18.6667V26.6666H17.3333ZM14.6667 15.9999V25.3333H21.3333V15.9999H14.6667Z" fill="#0059F1"/>
</svg>
