<svg width="32" height="32" viewBox="0 0 32 32" fill="none" xmlns="http://www.w3.org/2000/svg">
<path d="M27.1749 11.4267L25.5349 13.8934C26.3258 15.4708 26.713 17.2199 26.6618 18.9837C26.6106 20.7476 26.1226 22.4712 25.2415 24.0001H6.76153C5.61642 22.0136 5.14193 19.7109 5.40839 17.4335C5.67485 15.1561 6.66808 13.0252 8.24084 11.3567C9.8136 9.68812 11.8822 8.5708 14.1399 8.17034C16.3975 7.76988 18.7242 8.10759 20.7749 9.13341L23.2415 7.49341C20.7302 5.88304 17.7513 5.16142 14.7814 5.444C11.8115 5.72657 9.02212 6.99701 6.85952 9.0521C4.69692 11.1072 3.28601 13.8282 2.85249 16.7798C2.41896 19.7315 2.98787 22.7433 4.4682 25.3334C4.70088 25.7364 5.03498 26.0716 5.43731 26.3055C5.83963 26.5394 6.29616 26.6639 6.76153 26.6667H25.2282C25.6981 26.6686 26.1601 26.5463 26.5675 26.3121C26.9749 26.078 27.3133 25.7404 27.5482 25.3334C28.7767 23.2053 29.3932 20.7791 29.3297 18.3227C29.2662 15.8663 28.5251 13.4752 27.1882 11.4134L27.1749 11.4267Z" fill="#0059F1"/>
<path d="M14.1219 20.5466C14.3696 20.7945 14.6637 20.9912 14.9874 21.1254C15.3112 21.2596 15.6582 21.3287 16.0086 21.3287C16.359 21.3287 16.7061 21.2596 17.0298 21.1254C17.3535 20.9912 17.6476 20.7945 17.8953 20.5466L25.4419 9.22656L14.1219 16.7732C13.874 17.0209 13.6773 17.315 13.5431 17.6387C13.4089 17.9624 13.3398 18.3095 13.3398 18.6599C13.3398 19.0103 13.4089 19.3573 13.5431 19.6811C13.6773 20.0048 13.874 20.2989 14.1219 20.5466Z" fill="#0059F1"/>
</svg>
