<svg width="64" height="64" viewBox="0 0 64 64" fill="none" xmlns="http://www.w3.org/2000/svg">
<rect width="64" height="64" rx="32" fill="#543CDA"/>
<g clip-path="url(#clip0_2590_1288)">
<path fill-rule="evenodd" clip-rule="evenodd" d="M45.5 32C45.5 39.4559 39.4559 45.5 32 45.5C24.5442 45.5 18.5 39.4559 18.5 32C18.5 24.5442 24.5442 18.5 32 18.5C39.4559 18.5 45.5 24.5442 45.5 32ZM29.5893 28.625C29.5893 27.2936 30.6686 26.2143 32 26.2143C33.3314 26.2143 34.4107 27.2936 34.4107 28.625C34.4107 29.9564 33.3314 31.0357 32 31.0357C31.2012 31.0357 30.5536 31.6833 30.5536 32.4821V33.7289C30.5536 34.5278 31.2012 35.1754 32 35.1754C32.7988 35.1754 33.4464 34.5278 33.4464 33.7289C35.6725 33.0993 37.3036 31.0526 37.3036 28.625C37.3036 25.6959 34.9291 23.3214 32 23.3214C29.0709 23.3214 26.6964 25.6959 26.6964 28.625C26.6964 29.4238 27.344 30.0714 28.1429 30.0714C28.9417 30.0714 29.5893 29.4238 29.5893 28.625ZM33.9286 38.75C33.9286 39.8152 33.0651 40.6786 32 40.6786C30.9349 40.6786 30.0714 39.8152 30.0714 38.75C30.0714 37.6849 30.9349 36.8214 32 36.8214C33.0651 36.8214 33.9286 37.6849 33.9286 38.75Z" fill="white"/>
</g>
<defs>
<clipPath id="clip0_2590_1288">
<rect width="27" height="27" fill="white" transform="translate(18.5 18.5)"/>
</clipPath>
</defs>
</svg>
