<svg width="61" height="60" viewBox="0 0 61 60" fill="none" xmlns="http://www.w3.org/2000/svg">
<rect x="0.332031" width="60" height="60" rx="30" fill="#543CDA" fill-opacity="0.2"/>
<path d="M30.5877 42.3182C29.3907 42.3106 28.2354 42.1098 27.1218 41.7159C26.0157 41.322 25.0233 40.6818 24.1445 39.7955C23.2657 38.9091 22.5688 37.7348 22.0536 36.2727C21.546 34.8106 21.2923 33.0152 21.2923 30.8864C21.2998 28.9318 21.5233 27.1856 21.9627 25.6477C22.4097 24.1023 23.046 22.7917 23.8718 21.7159C24.7051 20.6402 25.7013 19.822 26.8604 19.2614C28.0195 18.6932 29.3188 18.4091 30.7582 18.4091C32.3112 18.4091 33.6824 18.7121 34.8718 19.3182C36.0612 19.9167 37.0157 20.7311 37.7354 21.7614C38.4627 22.7917 38.9021 23.947 39.0536 25.2273H34.2014C34.012 24.4167 33.6142 23.7803 33.0082 23.3182C32.4021 22.8561 31.6521 22.625 30.7582 22.625C29.243 22.625 28.0915 23.2841 27.3036 24.6023C26.5233 25.9205 26.1256 27.7121 26.1104 29.9773H26.2695C26.618 29.2879 27.0877 28.7008 27.6786 28.2159C28.2771 27.7235 28.9551 27.3485 29.7127 27.0909C30.4779 26.8258 31.2847 26.6932 32.1332 26.6932C33.512 26.6932 34.7392 27.0189 35.815 27.6705C36.8907 28.3144 37.7392 29.2008 38.3604 30.3295C38.9817 31.4583 39.2923 32.75 39.2923 34.2045C39.2923 35.7803 38.9248 37.1818 38.19 38.4091C37.4627 39.6364 36.4438 40.5985 35.1332 41.2955C33.8301 41.9848 32.315 42.3258 30.5877 42.3182ZM30.565 38.4545C31.3226 38.4545 32.0006 38.2727 32.5991 37.9091C33.1976 37.5455 33.6673 37.053 34.0082 36.4318C34.3491 35.8106 34.5195 35.1136 34.5195 34.3409C34.5195 33.5682 34.3491 32.875 34.0082 32.2614C33.6748 31.6477 33.2127 31.1591 32.6218 30.7955C32.0309 30.4318 31.3567 30.25 30.5991 30.25C30.0309 30.25 29.5044 30.3561 29.0195 30.5682C28.5423 30.7803 28.1218 31.0758 27.7582 31.4545C27.4021 31.8333 27.1218 32.2727 26.9173 32.7727C26.7127 33.2652 26.6104 33.7917 26.6104 34.3523C26.6104 35.1023 26.7809 35.7879 27.1218 36.4091C27.4703 37.0303 27.94 37.5265 28.5309 37.8977C29.1294 38.2689 29.8074 38.4545 30.565 38.4545Z" fill="black"/>
</svg>
