<svg width="61" height="60" viewBox="0 0 61 60" fill="none" xmlns="http://www.w3.org/2000/svg">
<rect x="0.664062" width="60" height="60" rx="30" fill="#543CDA" fill-opacity="0.2"/>
<path d="M30.6058 42.3182C28.9089 42.3182 27.3975 42.0265 26.0717 41.4432C24.7536 40.8523 23.7119 40.0417 22.9467 39.0114C22.1892 37.9735 21.799 36.7765 21.7763 35.4205H26.7308C26.7611 35.9886 26.9467 36.4886 27.2876 36.9205C27.6361 37.3447 28.0982 37.6742 28.674 37.9091C29.2498 38.1439 29.8975 38.2614 30.6172 38.2614C31.3672 38.2614 32.0301 38.1288 32.6058 37.8636C33.1816 37.5985 33.6323 37.2311 33.9581 36.7614C34.2839 36.2917 34.4467 35.75 34.4467 35.1364C34.4467 34.5152 34.2725 33.9659 33.924 33.4886C33.5831 33.0038 33.0907 32.625 32.4467 32.3523C31.8104 32.0795 31.0528 31.9432 30.174 31.9432H28.0036V28.3295H30.174C30.9164 28.3295 31.5717 28.2008 32.1399 27.9432C32.7157 27.6856 33.1626 27.3295 33.4808 26.875C33.799 26.4129 33.9581 25.875 33.9581 25.2614C33.9581 24.678 33.8179 24.1667 33.5376 23.7273C33.2649 23.2803 32.8786 22.9318 32.3786 22.6818C31.8861 22.4318 31.3104 22.3068 30.6513 22.3068C29.9846 22.3068 29.3748 22.428 28.8217 22.6705C28.2687 22.9053 27.8255 23.2424 27.4922 23.6818C27.1589 24.1212 26.9808 24.6364 26.9581 25.2273H22.2422C22.2649 23.8864 22.6475 22.7045 23.3899 21.6818C24.1323 20.6591 25.1323 19.8598 26.3899 19.2841C27.6551 18.7008 29.0831 18.4091 30.674 18.4091C32.2801 18.4091 33.6854 18.7008 34.8899 19.2841C36.0945 19.8674 37.0301 20.6553 37.6967 21.6477C38.371 22.6326 38.7043 23.7386 38.6967 24.9659C38.7043 26.2689 38.299 27.3561 37.4808 28.2273C36.6702 29.0985 35.6134 29.6515 34.3104 29.8864V30.0682C36.0225 30.2879 37.3255 30.8826 38.2195 31.8523C39.121 32.8144 39.5679 34.0189 39.5604 35.4659C39.5679 36.7917 39.1854 37.9697 38.4126 39C37.6475 40.0303 36.5907 40.8409 35.2422 41.4318C33.8937 42.0227 32.3482 42.3182 30.6058 42.3182Z" fill="black"/>
</svg>
