<svg width="32" height="32" viewBox="0 0 32 32" fill="none" xmlns="http://www.w3.org/2000/svg">
<path d="M22.3995 4.39995C22.3995 4.08169 22.5259 3.77647 22.7509 3.55142C22.976 3.32638 23.2812 3.19995 23.5995 3.19995H27.5995C27.9177 3.19995 28.2229 3.32638 28.448 3.55142C28.673 3.77647 28.7995 4.08169 28.7995 4.39995V8.39995C28.7995 8.71821 28.673 9.02344 28.448 9.24848C28.2229 9.47352 27.9177 9.59995 27.5995 9.59995C27.2812 9.59995 26.976 9.47352 26.7509 9.24848C26.5259 9.02344 26.3995 8.71821 26.3995 8.39995V7.29595L19.2475 14.448C19.0225 14.6727 18.7175 14.7989 18.3995 14.7989C18.0815 14.7989 17.7765 14.6727 17.5515 14.448L13.5995 10.496L6.84747 17.248C6.73761 17.3658 6.60512 17.4604 6.45793 17.526C6.31073 17.5916 6.15183 17.6269 5.9907 17.6297C5.82958 17.6325 5.66953 17.6029 5.52011 17.5425C5.37069 17.4822 5.23495 17.3924 5.121 17.2784C5.00705 17.1645 4.91722 17.0287 4.85687 16.8793C4.79651 16.7299 4.76688 16.5698 4.76972 16.4087C4.77256 16.2476 4.80783 16.0887 4.87342 15.9415C4.939 15.7943 5.03357 15.6618 5.15146 15.552L12.7515 7.95195C12.9765 7.72723 13.2815 7.60101 13.5995 7.60101C13.9175 7.60101 14.2225 7.72723 14.4475 7.95195L18.3995 11.904L24.7035 5.59995H23.5995C23.2812 5.59995 22.976 5.47352 22.7509 5.24848C22.5259 5.02344 22.3995 4.71821 22.3995 4.39995ZM5.99946 22.4C6.31772 22.4 6.62295 22.5264 6.84799 22.7514C7.07304 22.9765 7.19946 23.2817 7.19946 23.6V27.6C7.19946 27.9182 7.07304 28.2234 6.84799 28.4485C6.62295 28.6735 6.31772 28.8 5.99946 28.8C5.6812 28.8 5.37598 28.6735 5.15094 28.4485C4.92589 28.2234 4.79946 27.9182 4.79946 27.6V23.6C4.79946 23.2817 4.92589 22.9765 5.15094 22.7514C5.37598 22.5264 5.6812 22.4 5.99946 22.4ZM13.5995 18.8C13.5995 18.4817 13.473 18.1765 13.248 17.9514C13.0229 17.7264 12.7177 17.6 12.3995 17.6C12.0812 17.6 11.776 17.7264 11.5509 17.9514C11.3259 18.1765 11.1995 18.4817 11.1995 18.8V27.6C11.1995 27.9182 11.3259 28.2234 11.5509 28.4485C11.776 28.6735 12.0812 28.8 12.3995 28.8C12.7177 28.8 13.0229 28.6735 13.248 28.4485C13.473 28.2234 13.5995 27.9182 13.5995 27.6V18.8ZM18.7995 20.8C19.1177 20.8 19.4229 20.9264 19.648 21.1514C19.873 21.3765 19.9995 21.6817 19.9995 22V27.6C19.9995 27.9182 19.873 28.2234 19.648 28.4485C19.4229 28.6735 19.1177 28.8 18.7995 28.8C18.4812 28.8 18.176 28.6735 17.9509 28.4485C17.7259 28.2234 17.5995 27.9182 17.5995 27.6V22C17.5995 21.6817 17.7259 21.3765 17.9509 21.1514C18.176 20.9264 18.4812 20.8 18.7995 20.8ZM26.3995 15.6C26.3995 15.2817 26.273 14.9765 26.048 14.7514C25.823 14.5264 25.5177 14.4 25.1995 14.4C24.8812 14.4 24.576 14.5264 24.3509 14.7514C24.1259 14.9765 23.9995 15.2817 23.9995 15.6V27.6C23.9995 27.9182 24.1259 28.2234 24.3509 28.4485C24.576 28.6735 24.8812 28.8 25.1995 28.8C25.5177 28.8 25.823 28.6735 26.048 28.4485C26.273 28.2234 26.3995 27.9182 26.3995 27.6V15.6Z" fill="#0059F1"/>
</svg>
