<svg width="86" height="636" viewBox="0 0 86 636" fill="none" xmlns="http://www.w3.org/2000/svg">
<rect width="86" height="84" rx="42" fill="#543CDA"/>
<g clip-path="url(#clip0_2576_1249)">
<path fill-rule="evenodd" clip-rule="evenodd" d="M33.75 23.5C28.6414 23.5 24.5 27.6414 24.5 32.75V51.25C24.5 56.3586 28.6414 60.5 33.75 60.5H52.25C57.3586 60.5 61.5 56.3586 61.5 51.25V32.75C61.5 27.6414 57.3586 23.5 52.25 23.5H33.75ZM52.2574 37.2918C52.9411 36.437 52.8026 35.1896 51.9477 34.5058C51.093 33.8219 49.8456 33.9605 49.1617 34.8153L39.7904 46.5294L36.0416 43.7179C35.1659 43.061 33.9235 43.2385 33.2666 44.1143C32.6098 44.99 32.7873 46.2325 33.6631 46.8893L38.9488 50.8536C39.8053 51.496 41.0171 51.342 41.6859 50.506L52.2574 37.2918Z" fill="white"/>
</g>
<rect y="138" width="86" height="84" rx="42" fill="#543CDA"/>
<g clip-path="url(#clip1_2576_1249)">
<path fill-rule="evenodd" clip-rule="evenodd" d="M33.75 161.5C28.6414 161.5 24.5 165.641 24.5 170.75V189.25C24.5 194.359 28.6414 198.5 33.75 198.5H52.25C57.3586 198.5 61.5 194.359 61.5 189.25V170.75C61.5 165.641 57.3586 161.5 52.25 161.5H33.75ZM52.2574 175.292C52.9411 174.437 52.8026 173.19 51.9477 172.506C51.093 171.822 49.8456 171.961 49.1617 172.815L39.7904 184.529L36.0416 181.718C35.1659 181.061 33.9235 181.239 33.2666 182.114C32.6098 182.99 32.7873 184.232 33.6631 184.889L38.9488 188.854C39.8053 189.496 41.0171 189.342 41.6859 188.506L52.2574 175.292Z" fill="white"/>
</g>
<rect y="276" width="86" height="84" rx="42" fill="#543CDA"/>
<g clip-path="url(#clip2_2576_1249)">
<path fill-rule="evenodd" clip-rule="evenodd" d="M33.75 299.5C28.6414 299.5 24.5 303.641 24.5 308.75V327.25C24.5 332.359 28.6414 336.5 33.75 336.5H52.25C57.3586 336.5 61.5 332.359 61.5 327.25V308.75C61.5 303.641 57.3586 299.5 52.25 299.5H33.75ZM52.2574 313.292C52.9411 312.437 52.8026 311.19 51.9477 310.506C51.093 309.822 49.8456 309.961 49.1617 310.815L39.7904 322.529L36.0416 319.718C35.1659 319.061 33.9235 319.239 33.2666 320.114C32.6098 320.99 32.7873 322.232 33.6631 322.889L38.9488 326.854C39.8053 327.496 41.0171 327.342 41.6859 326.506L52.2574 313.292Z" fill="white"/>
</g>
<rect y="414" width="86" height="84" rx="42" fill="#543CDA"/>
<g clip-path="url(#clip3_2576_1249)">
<path fill-rule="evenodd" clip-rule="evenodd" d="M33.75 437.5C28.6414 437.5 24.5 441.641 24.5 446.75V465.25C24.5 470.359 28.6414 474.5 33.75 474.5H52.25C57.3586 474.5 61.5 470.359 61.5 465.25V446.75C61.5 441.641 57.3586 437.5 52.25 437.5H33.75ZM52.2574 451.292C52.9411 450.437 52.8026 449.19 51.9477 448.506C51.093 447.822 49.8456 447.961 49.1617 448.815L39.7904 460.529L36.0416 457.718C35.1659 457.061 33.9235 457.239 33.2666 458.114C32.6098 458.99 32.7873 460.232 33.6631 460.889L38.9488 464.854C39.8053 465.496 41.0171 465.342 41.6859 464.506L52.2574 451.292Z" fill="white"/>
</g>
<rect y="552" width="86" height="84" rx="42" fill="#543CDA"/>
<g clip-path="url(#clip4_2576_1249)">
<path fill-rule="evenodd" clip-rule="evenodd" d="M33.75 575.5C28.6414 575.5 24.5 579.641 24.5 584.75V603.25C24.5 608.359 28.6414 612.5 33.75 612.5H52.25C57.3586 612.5 61.5 608.359 61.5 603.25V584.75C61.5 579.641 57.3586 575.5 52.25 575.5H33.75ZM52.2574 589.292C52.9411 588.437 52.8026 587.19 51.9477 586.506C51.093 585.822 49.8456 585.961 49.1617 586.815L39.7904 598.529L36.0416 595.718C35.1659 595.061 33.9235 595.239 33.2666 596.114C32.6098 596.99 32.7873 598.232 33.6631 598.889L38.9488 602.854C39.8053 603.496 41.0171 603.342 41.6859 602.506L52.2574 589.292Z" fill="white"/>
</g>
<line x1="44" y1="82" x2="44" y2="140" stroke="#543CDA" stroke-width="14"/>
<line x1="44" y1="221" x2="44" y2="277" stroke="#543CDA" stroke-width="14"/>
<line x1="44" y1="353" x2="44" y2="415" stroke="#543CDA" stroke-width="14"/>
<line x1="44" y1="491" x2="44" y2="556" stroke="#543CDA" stroke-width="14"/>
<defs>
<clipPath id="clip0_2576_1249">
<rect width="37" height="37" fill="white" transform="translate(24.5 23.5)"/>
</clipPath>
<clipPath id="clip1_2576_1249">
<rect width="37" height="37" fill="white" transform="translate(24.5 161.5)"/>
</clipPath>
<clipPath id="clip2_2576_1249">
<rect width="37" height="37" fill="white" transform="translate(24.5 299.5)"/>
</clipPath>
<clipPath id="clip3_2576_1249">
<rect width="37" height="37" fill="white" transform="translate(24.5 437.5)"/>
</clipPath>
<clipPath id="clip4_2576_1249">
<rect width="37" height="37" fill="white" transform="translate(24.5 575.5)"/>
</clipPath>
</defs>
</svg>
