<svg width="21" height="21" viewBox="0 0 21 21" fill="none" xmlns="http://www.w3.org/2000/svg">
<path d="M11.005 20.0754C10.6767 20.2083 10.3131 20.2083 9.98489 20.0754C7.42367 19.0428 5.22099 17.219 3.6678 14.8443C2.1146 12.4698 1.28399 9.65635 1.28565 6.77569V2.31273C1.28565 1.91818 1.43492 1.53978 1.70062 1.2608C1.96633 0.981808 2.3267 0.825073 2.70246 0.825073H18.2874C18.6631 0.825073 19.0236 0.981808 19.2893 1.2608C19.555 1.53978 19.7043 1.91818 19.7043 2.31273V6.77569C19.7059 9.65635 18.8753 12.4698 17.3221 14.8443C15.7689 17.219 13.5662 19.0428 11.005 20.0754Z" stroke="#543CDA" stroke-width="2" stroke-linecap="round" stroke-linejoin="round"/>
<path d="M14.7858 6L9.0715 12.75L6.21436 10.5" stroke="#543CDA" stroke-width="2" stroke-linecap="round" stroke-linejoin="round"/>
</svg>
