<svg width="66" height="66" viewBox="0 0 66 66" fill="none" xmlns="http://www.w3.org/2000/svg">
<path d="M31.2134 6.20486C32.2767 5.82776 33.4631 5.81987 34.5455 6.1863L52.522 12.2176C54.5342 12.8894 55.8948 14.7379 55.9058 16.8093L56.0201 34.7947C56.0555 40.2469 54.0681 45.5345 50.4283 49.6775C48.7542 51.5791 46.608 53.2129 43.8677 54.6736L34.2047 59.8386C33.902 59.998 33.5693 60.0811 33.234 60.0838C32.8987 60.0864 32.5631 60.006 32.2632 59.8494L22.5103 54.8035C19.7404 53.3668 17.5757 51.7574 15.8853 49.8826C12.1853 45.782 10.1288 40.5177 10.0933 35.0574L9.97907 17.0857C9.96822 15.0117 11.3042 13.1505 13.3052 12.4519L31.2134 6.20486ZM43.1422 25.4676C42.3379 24.6948 41.043 24.6999 40.2496 25.4832L31.1256 34.4754L27.3902 30.8855C26.5859 30.1127 25.2938 30.1206 24.4976 30.9041C23.7044 31.6876 23.7129 32.9458 24.5172 33.7185L29.7056 38.7117C30.1091 39.0994 30.6324 39.2912 31.1558 39.2859C31.6793 39.2833 32.2001 39.0862 32.5982 38.6931L43.1588 28.282C43.9517 27.4986 43.9435 26.2403 43.1422 25.4676Z" fill="#543CDA"/>
</svg>
