<svg width="172" height="60" viewBox="0 0 172 60" fill="none" xmlns="http://www.w3.org/2000/svg">
<path d="M185.905 52.1983V60H203.494C207.098 60 213.283 57.888 213.498 51.9828V48.9656C213.498 43.9225 208.335 40.9484 203.494 40.9484H194.726V37.3277H212.1V29.4829H195.426C191.123 29.4829 185.367 32.3277 185.367 37.6294V40.3449C185.367 45.6466 191.069 48.3621 195.426 48.3621C207.528 48.4052 192.521 48.3621 203.709 48.3621V52.1552L185.905 52.1983ZM91.6697 50.3018C91.6697 50.3018 101.083 49.6552 101.083 39.9139C101.083 30.1725 89.6796 29.2673 89.6796 29.2673H69.1328V60H79.46V52.5863L88.3887 60H103.664L91.6697 50.3018ZM87.6895 44.0087H79.46V36.9828H87.7433C87.7433 36.9828 90.0561 37.6725 90.0561 40.4742C90.0561 43.2759 87.6895 44.0087 87.6895 44.0087ZM126.578 29.4829H116.089C108.613 29.4829 106.085 34.9139 106.085 37.5001V60H116.573V54.6121H126.416V60H136.582V37.5001C136.582 30.9484 129.16 29.4829 126.578 29.4829ZM126.416 45.9052H116.52V38.4484C116.52 38.4484 116.52 36.7673 119.801 36.7673H123.404C126.309 36.7673 126.363 38.4484 126.363 38.4484V45.9052H126.416ZM141.369 29.4829H152.288V60H141.369V29.4829ZM167.618 52.1121V29.4829H156.753V60H182.302V52.1121H167.618Z" fill="#898989"/>
<path d="M4.25 59.9998H46.7421C46.7421 59.9998 38.6202 30.3016 65.5139 18.2757C71.3767 15.9913 90.041 7.45679 120.592 25.5602C121.56 24.9137 122.475 24.3964 122.475 24.3964C122.475 24.3964 94.5053 2.02576 63.3624 4.52576C47.7102 5.64645 28.4543 17.0688 17.159 32.155C5.86362 47.2412 4.25 59.9998 4.25 59.9998Z" fill="#898989"/>
<path d="M4.25 59.9998H46.7421C46.7421 59.9998 38.6202 30.3016 65.5139 18.2757C71.3767 15.9913 90.041 7.45679 120.592 25.5602C121.56 24.9137 122.475 24.3964 122.475 24.3964C122.475 24.3964 94.5053 2.02576 63.3624 4.52576C47.7102 5.64645 28.4543 17.0688 17.159 32.155C5.86362 47.2412 4.25 59.9998 4.25 59.9998Z" fill="#898989"/>
<path d="M4.25 59.9999H46.7421C46.7421 59.9999 38.6202 30.3017 65.5139 18.2758C71.3767 15.9913 90.041 7.45688 120.592 25.5603C121.56 24.9137 122.475 24.3965 122.475 24.3965C122.475 24.3965 94.5053 2.02585 63.3624 4.52585C47.6565 5.64653 28.4006 17.0689 17.1052 32.1551C5.80984 47.2413 4.25 59.9999 4.25 59.9999ZM92.7841 6.93964L92.9993 4.05171C92.5152 3.83619 91.1705 3.31895 87.7819 2.54309L87.5667 5.38791C89.3417 5.86205 91.0629 6.37929 92.7841 6.93964Z" fill="#898989"/>
<path d="M87.6894 16.0776L87.4743 18.7931C89.2493 18.8362 91.0243 19.0086 92.7992 19.3103L93.0144 16.6379C91.1856 16.3362 89.4106 16.1638 87.6894 16.0776ZM67.7881 2.62931H68.326L67.2502 0C65.5828 0 63.8616 0.0862068 62.0866 0.25862L63.1086 2.80172C64.6684 2.67241 66.2282 2.62931 67.7881 2.62931ZM70.3699 18.4914L71.607 21.4655C73.1668 20.862 74.7267 20.3448 76.2865 19.9569L75.1032 17.112C73.2744 17.5431 71.7146 18.0172 70.3699 18.4914ZM45.9504 7.15516L43.5299 4.18103C42.1853 4.74137 40.7868 5.34482 39.3345 6.03447L41.8088 9.05171C43.2072 8.36206 44.5519 7.71551 45.9504 7.15516ZM56.9768 26.5517L59.5586 29.6551C60.473 28.5775 61.5487 27.5862 62.7321 26.5948L60.3116 23.6638C59.0745 24.5689 57.945 25.5603 56.9768 26.5517ZM49.1776 40.431L53.5344 43.1896C53.7496 41.5086 54.1261 39.8275 54.6639 38.1465L50.7913 35.6896C50.092 37.2844 49.6079 38.8793 49.1776 40.431ZM25.6187 19.9569L21.7998 17.2845C20.4014 18.362 19.0567 19.4396 17.8196 20.5172L21.9612 23.362C23.0907 22.1982 24.3278 21.0345 25.6187 19.9569ZM9.37493 39.2241L3.18937 37.4137C2.16741 39.2672 1.03787 41.4224 0.5 42.5862L6.68555 44.3965C7.38479 42.931 8.51433 40.8189 9.37493 39.2241ZM48.3708 51.3792C48.4784 53.6637 48.7473 55.5172 49.0163 56.8103L55.4708 58.6637C54.9867 56.9827 54.5026 55.0861 54.1799 53.0603L48.3708 51.3792Z" fill="#898989"/>
</svg>
