<svg width="316" height="60" viewBox="0 0 316 60" fill="none" xmlns="http://www.w3.org/2000/svg">
<g clip-path="url(#clip0_3078_1896)">
<mask id="mask0_3078_1896" style="mask-type:luminance" maskUnits="userSpaceOnUse" x="2" y="0" width="314" height="60">
<path d="M2.11328 0H315.396V60H2.11328V0Z" fill="white"/>
</mask>
<g mask="url(#mask0_3078_1896)">
<path d="M2.11328 0H62.1133V60H2.11328V0Z" fill="#898989"/>
<path d="M20.6094 15.015H27.9031V45.015H20.6094V15.015Z" fill="white"/>
<path d="M43.6161 44.9888H35.5723L27.2773 30.0038L35.5723 15.015H43.6161L35.2723 30L43.6161 44.9888Z" fill="white"/>
<path d="M65.4453 0H125.445V60H65.4453V0Z" fill="#898989"/>
<path d="M90.0087 40.6763L88.7037 45.0375H80.9375L90.8112 14.9625H100.085L109.887 45.0375H101.937L100.636 40.725L90.0125 40.6763H90.0087ZM95.3187 23.5838L91.8125 34.7888H98.8288L95.3187 23.5838Z" fill="white"/>
<path d="M128.754 0H188.754V60H128.754V0Z" fill="#898989"/>
<path d="M162.51 45.0375H155.168V31.7813L145.316 14.9625H153.99L158.85 24.1875L163.639 14.9625H172.185L162.51 31.7813V45.0375Z" fill="white"/>
<path d="M192.09 0H252.09V60H192.09V0Z" fill="#898989"/>
<path d="M216.649 40.6763L215.344 45.0375H207.574L217.448 14.9625H226.722L236.52 45.0375H228.578L227.273 40.725L216.649 40.6763ZM221.959 23.5838L218.453 34.7888H225.465L221.959 23.5838Z" fill="white"/>
<path d="M255.395 0H315.395V60H255.395V0Z" fill="#898989"/>
<path d="M273.891 15.015H281.184V45.015H273.891V15.015Z" fill="white"/>
<path d="M296.901 44.9888H288.854L280.559 30.0038L288.854 15.015H296.901L288.554 30L296.901 44.9888Z" fill="white"/>
</g>
</g>
<defs>
<clipPath id="clip0_3078_1896">
<rect width="315" height="60" fill="white" transform="translate(0.5)"/>
</clipPath>
</defs>
</svg>
