<svg width="40" height="40" viewBox="0 0 40 40" fill="none" xmlns="http://www.w3.org/2000/svg">
<path d="M3.33203 20.0434C3.33203 28.62 9.77703 35.6884 18.077 36.6434C19.302 36.785 20.4887 36.2634 21.3604 35.3884C21.8835 34.8635 22.1772 34.1527 22.1772 33.4117C22.1772 32.6707 21.8835 31.9599 21.3604 31.435C20.4887 30.56 19.777 29.2567 20.4354 28.2117C23.062 24.0317 36.6654 33.63 36.6654 20.045C36.6654 10.8134 29.2037 3.33337 19.9987 3.33337C10.7937 3.33337 3.33203 10.815 3.33203 20.0434Z" stroke="#543CDA" stroke-width="1.5"/>
<path d="M29.1641 20.4167C29.8544 20.4167 30.4141 19.8571 30.4141 19.1667C30.4141 18.4764 29.8544 17.9167 29.1641 17.9167C28.4737 17.9167 27.9141 18.4764 27.9141 19.1667C27.9141 19.8571 28.4737 20.4167 29.1641 20.4167Z" stroke="#543CDA" stroke-width="1.5"/>
<path d="M10.832 20.4167C11.5224 20.4167 12.082 19.8571 12.082 19.1667C12.082 18.4764 11.5224 17.9167 10.832 17.9167C10.1417 17.9167 9.58203 18.4764 9.58203 19.1667C9.58203 19.8571 10.1417 20.4167 10.832 20.4167Z" stroke="#543CDA" stroke-width="1.5"/>
<path d="M17.2227 11.6667C17.2227 11.9983 17.091 12.3162 16.8565 12.5506C16.6221 12.7851 16.3042 12.9167 15.9727 12.9167C15.6411 12.9167 15.3232 12.7851 15.0888 12.5506C14.8544 12.3162 14.7227 11.9983 14.7227 11.6667C14.7227 11.3352 14.8544 11.0173 15.0888 10.7829C15.3232 10.5484 15.6411 10.4167 15.9727 10.4167C16.3042 10.4167 16.6221 10.5484 16.8565 10.7829C17.091 11.0173 17.2227 11.3352 17.2227 11.6667ZM25.4143 11.6667C25.4143 11.9983 25.2826 12.3162 25.0482 12.5506C24.8138 12.7851 24.4958 12.9167 24.1643 12.9167C23.8328 12.9167 23.5149 12.7851 23.2804 12.5506C23.046 12.3162 22.9143 11.9983 22.9143 11.6667C22.9143 11.3352 23.046 11.0173 23.2804 10.7829C23.5149 10.5484 23.8328 10.4167 24.1643 10.4167C24.4958 10.4167 24.8138 10.5484 25.0482 10.7829C25.2826 11.0173 25.4143 11.3352 25.4143 11.6667Z" stroke="#543CDA" stroke-width="1.5"/>
</svg>
