<svg width="24" height="24" viewBox="0 0 24 24" fill="none" xmlns="http://www.w3.org/2000/svg">
<path fill-rule="evenodd" clip-rule="evenodd" d="M15.4948 6.93503C15.6446 7.06581 15.7364 7.25072 15.7499 7.44913C15.7634 7.64753 15.6975 7.84317 15.5668 7.99303L7.70984 16.993C7.63944 17.0737 7.5526 17.1383 7.45514 17.1826C7.35769 17.2269 7.25188 17.2498 7.14484 17.2498C7.03779 17.2498 6.93199 17.2269 6.83453 17.1826C6.73708 17.1383 6.65023 17.0737 6.57984 16.993L3.43684 13.393C3.31076 13.2426 3.24871 13.0487 3.264 12.8529C3.27929 12.6572 3.37071 12.4753 3.51862 12.3462C3.66654 12.2172 3.85916 12.1513 4.05514 12.1626C4.25112 12.174 4.43483 12.2617 4.56684 12.407L7.14484 15.36L14.4368 7.00703C14.5676 6.85722 14.7525 6.76548 14.9509 6.75198C15.1493 6.73847 15.345 6.80432 15.4948 6.93503ZM20.5198 7.02003C20.8198 7.30503 20.8308 7.78003 20.5448 8.08003L11.9738 17.08C11.899 17.1587 11.8079 17.2201 11.707 17.2601C11.6061 17.3001 11.4977 17.3177 11.3893 17.3117C11.2809 17.3057 11.1751 17.2763 11.0792 17.2254C10.9833 17.1745 10.8996 17.1034 10.8338 17.017L10.4048 16.454C10.2925 16.3075 10.2381 16.1247 10.2521 15.9406C10.2661 15.7565 10.3475 15.5841 10.4808 15.4563C10.614 15.3285 10.7897 15.2543 10.9743 15.248C11.1588 15.2417 11.3392 15.3036 11.4808 15.422L19.4588 7.04503C19.596 6.90108 19.7847 6.81748 19.9835 6.8126C20.1822 6.80772 20.3748 6.88198 20.5188 7.01903" fill="black"/>
</svg>
