<svg width="32" height="32" viewBox="0 0 32 32" fill="none" xmlns="http://www.w3.org/2000/svg">
<path fill-rule="evenodd" clip-rule="evenodd" d="M30.6641 4.57255C30.6641 2.72071 28.8229 1.43265 27.0833 2.06747L17.3527 5.61828L7.58162 6.38233C4.80583 6.59939 2.66406 8.91517 2.66406 11.6994V13.6339C2.66406 16.4182 4.80583 18.734 7.58162 18.951L8.13175 18.994L9.07004 27.1452C9.30105 29.152 11.0001 30.6667 13.0202 30.6667C15.4031 30.6667 17.2509 28.5851 16.9683 26.219L16.1807 19.6234L17.3527 19.7151L27.0833 23.2659C28.8229 23.9007 30.6641 22.6126 30.6641 20.7608V4.57255ZM7.78951 9.04088L16.3051 8.375V16.9583L7.78951 16.2925C6.40161 16.1839 5.33073 15.026 5.33073 13.6339V11.6994C5.33073 10.3073 6.40161 9.14941 7.78951 9.04088ZM27.9974 20.7608L18.9718 17.4672V7.86612L27.9974 4.57256L27.9974 20.7608ZM11.7192 26.8402L10.8404 19.2058L13.4698 19.4114L14.3205 26.5352C14.4135 27.3145 13.805 28 13.0202 28C12.3549 28 11.7953 27.5012 11.7192 26.8402Z" fill="black"/>
</svg>
