<svg width="26" height="26" viewBox="0 0 26 26" fill="none" xmlns="http://www.w3.org/2000/svg">
<path fill-rule="evenodd" clip-rule="evenodd" d="M1 13C1 6.37258 6.37258 1 13 1C19.6274 1 25 6.37258 25 13C25 19.6274 19.6274 25 13 25C6.37258 25 1 19.6274 1 13ZM17.4434 10.7673C17.7398 10.3525 17.6437 9.77595 17.2288 9.47963C16.814 9.18331 16.2375 9.2794 15.9412 9.69424L11.9591 15.2691L9.96041 13.2704C9.59992 12.9099 9.01546 12.9099 8.65498 13.2704C8.2945 13.6308 8.2945 14.2153 8.65498 14.5758L11.4242 17.345C11.6161 17.5369 11.8826 17.6346 12.1531 17.6122C12.4235 17.5899 12.6703 17.4496 12.8281 17.2288L17.4434 10.7673Z" stroke="black" stroke-width="1.5"/>
</svg>
