<svg width="56" height="56" viewBox="0 0 56 56" fill="none" xmlns="http://www.w3.org/2000/svg">
<rect width="56" height="56" rx="28" fill="#543CDA" fill-opacity="0.8"/>
<path d="M18 29H26V31H18V29Z" fill="white"/>
<path d="M15 31C15.5523 31 16 30.5523 16 30C16 29.4477 15.5523 29 15 29C14.4477 29 14 29.4477 14 30C14 30.5523 14.4477 31 15 31Z" fill="white"/>
<path d="M25 27C25.5523 27 26 26.5523 26 26C26 25.4477 25.5523 25 25 25C24.4477 25 24 25.4477 24 26C24 26.5523 24.4477 27 25 27Z" fill="white"/>
<path d="M14 25H22V27H14V25ZM18 21H26V23H18V21Z" fill="white"/>
<path d="M15 23C15.5523 23 16 22.5523 16 22C16 21.4477 15.5523 21 15 21C14.4477 21 14 21.4477 14 22C14 22.5523 14.4477 23 15 23Z" fill="white"/>
<path d="M42.0008 40.6L34.6008 33.2C36.1008 31.2 37.0008 28.7 37.0008 26C37.0008 19.4 31.6008 14 25.0008 14C21.7008 14 18.6008 15.3 16.3008 17.8L17.8008 19.2C19.6008 17.1 22.2008 16 25.0008 16C30.5008 16 35.0008 20.5 35.0008 26C35.0008 31.5 30.5008 36 25.0008 36C22.0008 36 19.2008 34.7 17.3008 32.4L15.8008 33.7C18.0008 36.4 21.4008 38 25.0008 38C28.2008 38 31.1008 36.7 33.3008 34.7L40.6008 42L42.0008 40.6Z" fill="white"/>
</svg>
