<svg width="51" height="50" viewBox="0 0 51 50" fill="none" xmlns="http://www.w3.org/2000/svg">
<rect x="0.5" width="50" height="50" rx="25" fill="white"/>
<path fill-rule="evenodd" clip-rule="evenodd" d="M27.5 16C27.7652 16 28.0196 16.1054 28.2071 16.2929C28.3946 16.4804 28.5 16.7348 28.5 17C28.5006 17.9219 28.8193 18.8154 29.4023 19.5296C29.9853 20.2438 30.7969 20.7349 31.7 20.92C31.9599 20.973 32.1881 21.1272 32.3344 21.3485C32.4807 21.5697 32.533 21.8401 32.48 22.1C32.427 22.3599 32.2728 22.5881 32.0515 22.7344C31.8303 22.8807 31.5599 22.933 31.3 22.88C30.2582 22.6664 29.2919 22.1798 28.5 21.47V30C28.5 30.9889 28.2068 31.9556 27.6573 32.7779C27.1079 33.6001 26.327 34.241 25.4134 34.6194C24.4998 34.9978 23.4945 35.0969 22.5246 34.9039C21.5546 34.711 20.6637 34.2348 19.9645 33.5355C19.2652 32.8363 18.789 31.9454 18.5961 30.9755C18.4031 30.0055 18.5022 29.0002 18.8806 28.0866C19.259 27.173 19.8999 26.3921 20.7222 25.8427C21.5444 25.2932 22.5111 25 23.5 25C23.7652 25 24.0196 25.1054 24.2071 25.2929C24.3946 25.4804 24.5 25.7348 24.5 26C24.5 26.2652 24.3946 26.5196 24.2071 26.7071C24.0196 26.8946 23.7652 27 23.5 27C22.9067 27 22.3266 27.1759 21.8333 27.5056C21.3399 27.8352 20.9554 28.3038 20.7284 28.8519C20.5013 29.4001 20.4419 30.0033 20.5576 30.5853C20.6734 31.1672 20.9591 31.7018 21.3787 32.1213C21.7982 32.5409 22.3328 32.8266 22.9147 32.9424C23.4967 33.0581 24.0999 32.9987 24.6481 32.7716C25.1962 32.5446 25.6648 32.1601 25.9944 31.6667C26.3241 31.1734 26.5 30.5933 26.5 30V17C26.5 16.7348 26.6054 16.4804 26.7929 16.2929C26.9804 16.1054 27.2348 16 27.5 16Z" fill="black"/>
</svg>
