<svg width="56" height="56" viewBox="0 0 56 56" fill="none" xmlns="http://www.w3.org/2000/svg">
<path fill-rule="evenodd" clip-rule="evenodd" d="M16.2728 0.916939H39.754C48.9353 0.916939 55.0832 7.36006 55.0832 16.9476V39.0746C55.0832 48.6378 48.9353 55.0836 39.754 55.0836H16.2728C7.0915 55.0836 0.916504 48.6378 0.916504 39.0746V16.9476C0.916504 7.36006 7.0915 0.916939 16.2728 0.916939ZM37.6957 38.319C38.3728 38.319 39.0498 37.9669 39.429 37.3169C40.0248 36.3663 39.6998 35.1205 38.7248 34.5274L29.0832 28.7857V16.2705C29.0832 15.1628 28.1894 14.2392 27.0519 14.2392C25.9415 14.2392 25.0207 15.1628 25.0207 16.2705V29.9503C25.0207 30.6544 25.3998 31.3315 26.0228 31.6836L36.6394 38.0211C36.9644 38.2378 37.3436 38.319 37.6957 38.319Z" fill="#543CDA"/>
</svg>
