<svg width="60" height="60" viewBox="0 0 60 60" fill="none" xmlns="http://www.w3.org/2000/svg">
<rect width="60" height="60" rx="8" fill="#543CDA" fill-opacity="0.2"/>
<path d="M13.332 30.0434C13.332 38.62 19.777 45.6884 28.077 46.6434C29.302 46.785 30.4887 46.2634 31.3604 45.3884C31.8835 44.8635 32.1772 44.1527 32.1772 43.4117C32.1772 42.6707 31.8835 41.9599 31.3604 41.435C30.4887 40.56 29.777 39.2567 30.4354 38.2117C33.062 34.0317 46.6654 43.63 46.6654 30.045C46.6654 20.8134 39.2037 13.3334 29.9987 13.3334C20.7937 13.3334 13.332 20.815 13.332 30.0434Z" stroke="#543CDA" stroke-width="1.5"/>
<path d="M39.1641 30.4167C39.8544 30.4167 40.4141 29.8571 40.4141 29.1667C40.4141 28.4764 39.8544 27.9167 39.1641 27.9167C38.4737 27.9167 37.9141 28.4764 37.9141 29.1667C37.9141 29.8571 38.4737 30.4167 39.1641 30.4167Z" stroke="#543CDA" stroke-width="1.5"/>
<path d="M20.832 30.4167C21.5224 30.4167 22.082 29.8571 22.082 29.1667C22.082 28.4764 21.5224 27.9167 20.832 27.9167C20.1417 27.9167 19.582 28.4764 19.582 29.1667C19.582 29.8571 20.1417 30.4167 20.832 30.4167Z" stroke="#543CDA" stroke-width="1.5"/>
<path d="M27.2227 21.6667C27.2227 21.9983 27.091 22.3162 26.8565 22.5506C26.6221 22.7851 26.3042 22.9167 25.9727 22.9167C25.6411 22.9167 25.3232 22.7851 25.0888 22.5506C24.8544 22.3162 24.7227 21.9983 24.7227 21.6667C24.7227 21.3352 24.8544 21.0173 25.0888 20.7829C25.3232 20.5484 25.6411 20.4167 25.9727 20.4167C26.3042 20.4167 26.6221 20.5484 26.8565 20.7829C27.091 21.0173 27.2227 21.3352 27.2227 21.6667ZM35.4143 21.6667C35.4143 21.9983 35.2826 22.3162 35.0482 22.5506C34.8138 22.7851 34.4958 22.9167 34.1643 22.9167C33.8328 22.9167 33.5149 22.7851 33.2804 22.5506C33.046 22.3162 32.9143 21.9983 32.9143 21.6667C32.9143 21.3352 33.046 21.0173 33.2804 20.7829C33.5149 20.5484 33.8328 20.4167 34.1643 20.4167C34.4958 20.4167 34.8138 20.5484 35.0482 20.7829C35.2826 21.0173 35.4143 21.3352 35.4143 21.6667Z" stroke="#543CDA" stroke-width="1.5"/>
</svg>
