<svg width="50" height="46" viewBox="0 0 50 46" fill="none" xmlns="http://www.w3.org/2000/svg">
<path fill-rule="evenodd" clip-rule="evenodd" d="M20.8956 34.4945H3.36458C1.86958 34.4945 0.65625 35.7052 0.65625 37.2029C0.65625 38.7006 1.86958 39.9112 3.36458 39.9112H20.8956C22.3906 39.9112 23.604 38.7006 23.604 37.2029C23.604 35.7052 22.3906 34.4945 20.8956 34.4945Z" fill="#543CDA"/>
<path fill-rule="evenodd" clip-rule="evenodd" d="M39.2656 28.4801C32.9877 28.4801 30.5393 30.9258 30.5393 37.2064C30.5393 43.487 32.9877 45.9326 39.2656 45.9326C45.5462 45.9326 47.9918 43.487 47.9918 37.2064C47.9918 30.9258 45.5462 28.4801 39.2656 28.4801Z" fill="#543CDA"/>
<path fill-rule="evenodd" clip-rule="evenodd" d="M46.6352 6.08629H29.1096C27.6146 6.08629 26.4013 7.29692 26.4013 8.79463C26.4013 10.2923 27.6146 11.503 29.1096 11.503H46.6352C48.1302 11.503 49.3436 10.2923 49.3436 8.79463C49.3436 7.29692 48.1302 6.08629 46.6352 6.08629Z" fill="#543CDA"/>
<path fill-rule="evenodd" clip-rule="evenodd" d="M10.7368 17.5198C17.0175 17.5198 19.4631 15.0741 19.4631 8.7908C19.4631 2.51289 17.0175 0.0672607 10.7368 0.0672607C4.45621 0.0672607 2.01058 2.51289 2.01058 8.7908C2.01058 15.0741 4.45621 17.5198 10.7368 17.5198Z" fill="#543CDA"/>
</svg>
