<svg width="60" height="60" viewBox="0 0 60 60" fill="none" xmlns="http://www.w3.org/2000/svg">
<rect width="60" height="60" rx="30" fill="#543CDA" fill-opacity="0.2"/>
<path fill-rule="evenodd" clip-rule="evenodd" d="M40.4013 27.5734C39.988 23.3334 37.4813 16.6667 29.7347 16.6667C21.988 16.6667 19.4813 23.3334 19.068 27.5734C17.618 28.1237 16.6616 29.5159 16.668 31.0667V32.9334C16.668 34.9953 18.3395 36.6667 20.4013 36.6667C22.4632 36.6667 24.1347 34.9952 24.1347 32.9334V31.0667C24.1279 29.5493 23.2067 28.1858 21.8013 27.6134C22.068 25.1601 23.3747 19.3334 29.7347 19.3334C36.0947 19.3334 37.388 25.1601 37.6547 27.6134C36.2522 28.1871 35.3356 29.5515 35.3347 31.0667V32.9334C35.3376 33.6359 35.5378 34.3234 35.9127 34.9176C36.2875 35.5117 36.8219 35.9884 37.4547 36.2934C36.8947 37.3467 35.468 38.7734 31.9613 39.2001C31.2604 38.1357 29.9042 37.7161 28.7246 38.1986C27.545 38.6811 26.8717 39.9309 27.1177 41.1814C27.3637 42.4319 28.4602 43.3334 29.7347 43.3334C30.2285 43.3307 30.7119 43.1908 31.1309 42.9295C31.55 42.6682 31.8882 42.2957 32.108 41.8534C37.828 41.2001 39.6547 38.2534 40.228 36.5201C41.7791 36.0176 42.8223 34.5637 42.8013 32.9334V31.0667C42.8078 29.5159 41.8513 28.1237 40.4013 27.5734ZM21.468 32.9334C21.468 33.5225 20.9904 34.0001 20.4013 34.0001C19.8122 34.0001 19.3347 33.5226 19.3347 32.9334V31.0667C19.3336 30.926 19.3604 30.7864 19.4135 30.656C19.4666 30.5257 19.545 30.4071 19.6442 30.3072C19.7434 30.2073 19.8613 30.128 19.9913 30.0739C20.1212 30.0198 20.2606 29.9919 20.4013 29.9919C20.5421 29.9919 20.6815 30.0198 20.8114 30.0739C20.9414 30.128 21.0593 30.2073 21.1585 30.3072C21.2576 30.4071 21.336 30.5257 21.3892 30.656C21.4423 30.7864 21.4691 30.926 21.468 31.0667V32.9334ZM38.0013 31.0667C38.0013 30.4776 38.4789 30.0001 39.068 30.0001C39.6571 30.0001 40.1347 30.4776 40.1347 31.0667V32.9334C40.1347 33.5225 39.6571 34.0001 39.068 34.0001C38.4789 34.0001 38.0013 33.5226 38.0013 32.9334V31.0667Z" fill="#543CDA"/>
</svg>
