<svg width="60" height="60" viewBox="0 0 60 60" fill="none" xmlns="http://www.w3.org/2000/svg">
<rect width="60" height="60" rx="30" fill="#543CDA" fill-opacity="0.2"/>
<path d="M25.4686 35.16L20.3086 30L25.4686 24.84L26.4126 25.8L22.2126 30L26.4126 34.2L25.4686 35.16ZM22.0019 36.6666H23.3353V38.6666H36.6686V36.6666H38.0019V41.18C38.0019 41.7933 37.7966 42.3053 37.3859 42.716C36.9753 43.1266 36.4624 43.3324 35.8473 43.3333H24.1566C23.5424 43.3333 23.0299 43.128 22.6193 42.7173C22.2086 42.3066 22.0028 41.7942 22.0019 41.18V36.6666ZM23.3353 23.3333H22.0019V18.8213C22.0019 18.2071 22.2077 17.6946 22.6193 17.284C23.0308 16.8733 23.5433 16.6675 24.1566 16.6666H35.8486C36.4619 16.6666 36.9739 16.8724 37.3846 17.284C37.7953 17.6955 38.001 18.208 38.0019 18.8213V23.3333H36.6686V21.3333H23.3353V23.3333ZM23.3353 40V41.18C23.3353 41.3844 23.4206 41.5724 23.5913 41.744C23.7619 41.9155 23.9499 42.0008 24.1553 42H35.8486C36.053 42 36.241 41.9146 36.4126 41.744C36.5842 41.5733 36.6695 41.3848 36.6686 41.1786V40H23.3353ZM23.3353 20H36.6686V18.82C36.6686 18.6155 36.5833 18.4275 36.4126 18.256C36.2419 18.0844 36.0535 17.9991 35.8473 18H24.1566C23.9513 18 23.7628 18.0853 23.5913 18.256C23.4197 18.4266 23.3344 18.6151 23.3353 18.8213V20ZM34.5353 35.16L33.5913 34.2L37.7913 30L33.5913 25.8L34.5353 24.84L39.6953 30L34.5353 35.16Z" fill="#543CDA"/>
</svg>
