<svg width="60" height="60" viewBox="0 0 60 60" fill="none" xmlns="http://www.w3.org/2000/svg">
<rect width="60" height="60" rx="30" fill="#543CDA" fill-opacity="0.2"/>
<path d="M20.813 17.406L19.405 18.812L21.5 20.906L22.906 19.5L20.813 17.406ZM39.188 17.406L37.093 19.5L38.5 20.906L40.594 18.813L39.188 17.406ZM30 18.03C29.67 18.0327 29.3367 18.054 29 18.094H28.97C24.914 18.559 21.686 21.836 21.125 25.874C20.677 29.124 22.017 32.071 24.25 33.969C25.1633 34.7487 25.7811 35.8183 26 36.999V42.999H28.28C28.628 43.596 29.263 43.999 30 43.999C30.737 43.999 31.372 43.596 31.72 42.999H34V38.999H34.094V37.811C34.094 36.345 34.856 34.867 36.094 33.718C37.75 32.06 39 29.705 39 27C39 22.06 34.934 17.984 30 18.03ZM30 20.03C33.865 19.976 37 23.14 37 27C37 29.094 36.03 30.938 34.687 32.28L34.719 32.312C33.3849 33.5431 32.522 35.201 32.279 37H27.905C27.685 35.286 26.95 33.627 25.561 32.437C23.794 30.937 22.741 28.677 23.093 26.125C23.53 22.975 26.086 20.442 29.218 20.095C29.4766 20.0591 29.737 20.0378 29.998 20.031L30 20.03ZM16 27V29H19V27H16ZM41 27V29H44V27H41ZM21.5 35.094L19.406 37.187L20.813 38.594L22.905 36.5L21.5 35.094ZM38.5 35.094L37.094 36.5L39.187 38.594L40.594 37.187L38.5 35.094ZM28 39H32V41H28V39Z" fill="#543CDA"/>
</svg>
