<svg width="60" height="60" viewBox="0 0 60 60" fill="none" xmlns="http://www.w3.org/2000/svg">
<rect width="60" height="60" rx="30" fill="#543CDA" fill-opacity="0.2"/>
<path fill-rule="evenodd" clip-rule="evenodd" d="M26.7728 32.4288C27.1443 32.8002 27.5853 33.0948 28.0707 33.2957C28.556 33.4967 29.0762 33.6001 29.6016 33.6C30.6768 33.6 31.6848 33.1728 32.4304 32.4288C32.8018 32.0573 33.0964 31.6162 33.2973 31.1309C33.4983 30.6455 33.6017 30.1253 33.6016 29.6C33.6016 28.5248 33.1744 27.5168 32.4304 26.7712C32.0589 26.3998 31.6178 26.1052 31.1325 25.9042C30.6471 25.7033 30.1269 25.5999 29.6016 25.6C28.5264 25.6 27.5184 26.0272 26.7728 26.7712C26.4014 27.1427 26.1068 27.5837 25.9058 28.0691C25.7048 28.5545 25.6015 29.0747 25.6016 29.6C25.6016 30.6752 26.0288 31.6832 26.7728 32.4288ZM31.2992 31.2976C30.8512 31.7456 30.248 32 29.6016 32C28.9552 32 28.3536 31.744 27.9056 31.296C27.4576 30.848 27.2016 30.2464 27.2016 29.6C27.2016 28.9536 27.4576 28.352 27.9056 27.904C28.3536 27.456 28.9552 27.2 29.6016 27.2C30.248 27.2 30.8496 27.456 31.2976 27.904C31.7456 28.352 32.0016 28.9536 32.0016 29.6C32.0016 30.2464 31.7456 30.848 31.2976 31.296" fill="#543CDA"/>
<path fill-rule="evenodd" clip-rule="evenodd" d="M36.3448 19.6368L34.3128 20.7792C33.7187 20.4604 33.0936 20.2031 32.4472 20.0112L31.6952 17.7488C31.6425 17.5892 31.5408 17.4503 31.4047 17.3518C31.2685 17.2533 31.1049 17.2002 30.9368 17.2H28.0952C27.9208 17.2001 27.7512 17.2572 27.6123 17.3627C27.4734 17.4681 27.3727 17.616 27.3256 17.784L26.6984 20.0288C26.0528 20.224 25.4288 20.4845 24.836 20.8064L22.7032 19.736C22.5528 19.6606 22.3825 19.6346 22.2165 19.6616C22.0505 19.6886 21.8972 19.7672 21.7784 19.8864L19.7672 21.896C19.6437 22.0195 19.564 22.18 19.5404 22.3531C19.5167 22.5261 19.5503 22.7022 19.636 22.8544L20.7784 24.8864C20.4584 25.4794 20.2024 26.1013 20.0104 26.752L17.748 27.504C17.5885 27.5567 17.4496 27.6584 17.3511 27.7945C17.2526 27.9306 17.1995 28.0943 17.1992 28.2624V31.1056C17.1994 31.28 17.2565 31.4495 17.3619 31.5885C17.4674 31.7274 17.6153 31.8281 17.7832 31.8751L20.028 32.5024C20.2243 33.1509 20.4835 33.7717 20.8056 34.3647L19.7352 36.4975C19.6599 36.6479 19.6339 36.8182 19.6609 36.9843C19.6879 37.1503 19.7665 37.3036 19.8856 37.4223L21.8952 39.432C22.0187 39.5554 22.1793 39.6351 22.3523 39.6588C22.5254 39.6825 22.7015 39.6489 22.8536 39.5631L24.8856 38.4207C25.4787 38.7407 26.1006 38.9967 26.7512 39.1887L27.5032 41.4511C27.556 41.6107 27.6576 41.7496 27.7938 41.8481C27.9299 41.9466 28.0936 41.9997 28.2616 42H31.1048C31.2792 41.9998 31.4488 41.9427 31.5877 41.8372C31.7267 41.7318 31.8273 41.5839 31.8744 41.416L32.5016 39.1712C33.1472 38.9759 33.7713 38.7154 34.364 38.3936L36.4968 39.464C36.647 39.5395 36.8173 39.5658 36.9833 39.5391C37.1493 39.5123 37.3027 39.434 37.4216 39.3152L39.4312 37.3039C39.5547 37.1804 39.6344 37.0199 39.6581 36.8468C39.6818 36.6738 39.6482 36.4977 39.5624 36.3455L38.42 34.3136C38.74 33.7205 38.996 33.0986 39.188 32.4479L41.4504 31.696C41.61 31.6432 41.7488 31.5415 41.8473 31.4054C41.9458 31.2693 41.999 31.1056 41.9992 30.9376V28.096C41.9991 27.9215 41.9419 27.752 41.8365 27.613C41.7311 27.4741 41.5831 27.3734 41.4152 27.3264L39.1704 26.6992C38.9752 26.0535 38.7147 25.4295 38.3928 24.8368L39.4632 22.704C39.5388 22.5537 39.565 22.3835 39.5383 22.2175C39.5116 22.0515 39.4333 21.8981 39.3144 21.7792L37.3032 19.7696C37.1797 19.6461 37.0191 19.5664 36.8461 19.5427C36.673 19.519 36.497 19.551 36.3448 19.6368ZM34.7064 22.3968L36.6008 21.3296L37.7736 22.5024L36.7704 24.5024C36.71 24.623 36.6812 24.757 36.6865 24.8919C36.6918 25.0267 36.7311 25.158 36.8008 25.2736C37.2248 25.9776 37.5432 26.7424 37.7448 27.5423C37.7791 27.6792 37.8489 27.8046 37.9473 27.9057C38.0456 28.0069 38.169 28.0802 38.3048 28.1184L40.3992 28.7039V30.3632L38.276 31.0672C38.1479 31.1096 38.0325 31.1838 37.9408 31.2828C37.849 31.3819 37.7838 31.5025 37.7512 31.6335C37.5534 32.433 37.238 33.1987 36.8152 33.9056C36.7427 34.0266 36.7035 34.1646 36.7015 34.3056C36.6995 34.4467 36.7349 34.5858 36.804 34.7087L37.8712 36.6031L36.6984 37.7759L34.6984 36.7727C34.5777 36.7124 34.4437 36.6835 34.3089 36.6888C34.1741 36.6941 34.0428 36.7335 33.9272 36.8032C33.2232 37.2271 32.4584 37.5455 31.6584 37.7472C31.5216 37.7814 31.3962 37.8513 31.295 37.9496C31.1939 38.048 31.1205 38.1713 31.0824 38.3071L30.4968 40.4015H28.8392L28.1352 38.2783C28.0926 38.15 28.0182 38.0345 27.9188 37.9428C27.8195 37.851 27.6985 37.7859 27.5672 37.7535C26.7677 37.5557 26.002 37.2403 25.2952 36.8175C25.1742 36.745 25.0362 36.7058 24.8951 36.7038C24.7541 36.7019 24.615 36.7372 24.492 36.8063L22.5976 37.8735L21.4248 36.7008L22.428 34.7008C22.4884 34.5801 22.5173 34.4461 22.512 34.3112C22.5067 34.1764 22.4673 34.0451 22.3976 33.9296C21.9724 33.2242 21.6543 32.4596 21.4536 31.6608C21.4194 31.5239 21.3495 31.3985 21.2512 31.2974C21.1528 31.1962 21.0295 31.1229 20.8936 31.0848L18.7992 30.4992V28.8399L20.9224 28.136C21.0505 28.0931 21.1656 28.0186 21.2571 27.9193C21.3486 27.8199 21.4134 27.6991 21.4456 27.568C21.6456 26.768 21.9624 26.0016 22.3832 25.296C22.4557 25.1749 22.495 25.0369 22.4969 24.8959C22.4989 24.7548 22.4635 24.6157 22.3944 24.4928L21.3272 22.5984L22.5 21.4256L24.5 22.4288C24.6207 22.4891 24.7547 22.518 24.8895 22.5127C25.0244 22.5074 25.1557 22.468 25.2712 22.3984C25.9752 21.9744 26.74 21.656 27.54 21.4544C27.6769 21.4201 27.8022 21.3502 27.9034 21.2519C28.0046 21.1535 28.0779 21.0302 28.116 20.8944L28.7016 18.8H30.3608L31.0648 20.9232C31.1075 21.051 31.1818 21.166 31.2808 21.2575C31.3798 21.349 31.5004 21.4139 31.6312 21.4464C32.4312 21.6464 33.1976 21.9632 33.9032 22.384C34.0242 22.4565 34.1623 22.4957 34.3033 22.4977C34.4444 22.4996 34.5834 22.4659 34.7064 22.3968Z" fill="#543CDA"/>
</svg>
